<svg version="1.1" xmlns="http://www.w3.org/2000/svg" xmlns:xlink="http://www.w3.org/1999/xlink" x="0px" y="0px" viewBox="0 0 170.08 170.08" enable-background="new 0 0 170.08 170.08" xml:space="preserve">
	<g>
		<path fill="#FF0000" d="M85.037,4c0.922,0,1.786,0.36,2.448,1.03l77.575,77.537c1.342,1.354,1.351,3.618,0.013,4.95
			l-77.595,77.556c-0.646,0.649-1.514,1.007-2.441,1.007c-0.933,0-1.808-0.36-2.461-1.013L5.009,87.497
			c-0.647-0.638-1.005-1.498-1.008-2.422c-0.003-0.943,0.362-1.829,1.029-2.495L82.583,5.022C83.238,4.363,84.109,4,85.037,4
			 M85.037,0c-1.915,0-3.831,0.734-5.29,2.201L2.201,79.751c-2.934,2.93-2.934,7.703,0,10.595l77.546,77.549
			c1.459,1.457,3.375,2.185,5.29,2.185c1.914,0,3.826-0.728,5.276-2.185l77.588-77.549c2.904-2.892,2.904-7.665,0-10.595
			L90.313,2.201C88.863,0.734,86.951,0,85.037,0L85.037,0z"/>
	</g>
	<g>
		<g>
			<path fill="#FF0000" d="M99.584,121.14h-29.09V98.26H48.941V71.29h21.553V48.94h29.09v22.35h21.555v26.97H99.584V121.14
				L99.584,121.14z M77.494,114.14h15.09V91.26h21.555V78.29H92.584V55.94h-15.09v22.35H55.941v12.97h21.553V114.14L77.494,114.14z"
				/>
		</g>
	</g>
</svg>