<svg version="1.1" xmlns="http://www.w3.org/2000/svg" xmlns:xlink="http://www.w3.org/1999/xlink" x="0px" y="0px" viewBox="0 0 170.08 170.08" enable-background="new 0 0 170.08 170.08" xml:space="preserve">
	<g>
		<g>
			<path fill="#DE0921" d="M85.037,4c0.922,0,1.786,0.36,2.448,1.03l77.575,77.537c1.342,1.354,1.351,3.618,0.013,4.95
				l-77.595,77.556c-0.646,0.649-1.514,1.007-2.441,1.007c-0.933,0-1.808-0.36-2.461-1.013L5.009,87.497
				c-0.647-0.638-1.005-1.498-1.008-2.422c-0.003-0.943,0.362-1.829,1.029-2.495L82.583,5.022C83.238,4.363,84.109,4,85.037,4
				 M85.037,0c-1.915,0-3.831,0.734-5.29,2.201L2.201,79.751c-2.934,2.93-2.934,7.703,0,10.595l77.546,77.549
				c1.459,1.457,3.375,2.185,5.29,2.185c1.914,0,3.826-0.728,5.276-2.185l77.588-77.549c2.904-2.892,2.904-7.665,0-10.595
				L90.313,2.201C88.863,0.734,86.951,0,85.037,0L85.037,0z"/>
		</g>
	</g>
	<g>
		<rect x="56.592" y="115.772" fill="#FF0000" width="14" height="5"/>
		<rect x="76.592" y="115.772" fill="#FF0000" width="14" height="5"/>
		<rect x="96.592" y="115.772" fill="#FF0000" width="14" height="5"/>
		<path fill="#FF0000" d="M119.316,65.056L97.568,43.308L64.259,78.293l-10.328,29.409l-3.167,6.985l36.583-15.955L119.316,65.056z
			 M77.622,96.429l-4.48-4.48l-5.416-5.416l1.768-5.035l28.18-29.599l13.266,13.267L83.834,93.719L77.622,96.429z"/>
	</g>
</svg>
