
<svg version="1.1" xmlns="http://www.w3.org/2000/svg" xmlns:xlink="http://www.w3.org/1999/xlink" x="0px" y="0px" viewBox="0 0 170.08 170.08" enable-background="new 0 0 170.08 170.08" xml:space="preserve">
	 
<g id="Layer_1">
	<g>
		<g>
			<path fill="#404041" d="M90.313,167.895c-2.9,2.913-7.648,2.913-10.566,0L2.201,90.346c-2.934-2.892-2.934-7.665,0-10.595
				l77.546-77.55c2.918-2.934,7.666-2.934,10.566,0l77.588,77.55c2.904,2.93,2.904,7.703,0,10.595L90.313,167.895z"/>
		</g>
		<g>
			<path fill="#FFFFFF" d="M65.041,124.037h42.676V72.503H65.041V124.037z M82.961,117.315H71.964V79.642h10.997V117.315z
				 M100.454,117.315H89.456V79.642h10.998V117.315z"/>
			<path fill="#FFFFFF" d="M97.819,47.982l-5.99,3.001l-0.631-1.242c-1.653-3.307-5.681-4.646-8.984-2.984l-8.805,4.407
				c-3.305,1.658-4.641,5.684-2.984,8.988l0.623,1.245l-5.99,3.006l-2.694,1.351l2.703,5.395l2.694-1.354l32.758-16.42l2.697-1.352
				l-2.703-5.393L97.819,47.982z M73.099,59.983c-1.308-2.604-0.254-5.775,2.351-7.08l6.935-3.479
				c2.604-1.307,5.775-0.251,7.085,2.354l0.156,0.309l-16.372,8.207L73.099,59.983z"/>
		</g>
	</g>
</g>


</svg>
