
<svg version="1.1" xmlns="http://www.w3.org/2000/svg" xmlns:xlink="http://www.w3.org/1999/xlink" x="0px" y="0px" viewBox="0 0 170.08 170.08" enable-background="new 0 0 170.08 170.08" xml:space="preserve">
	 

<g id="Layer_5">
	<g>
		<path fill="#DE0921" d="M90.313,167.895c-2.9,2.913-7.648,2.913-10.566,0L2.201,90.346c-2.934-2.892-2.934-7.665,0-10.595
			l77.546-77.55c2.918-2.934,7.666-2.934,10.566,0l77.588,77.55c2.904,2.93,2.904,7.703,0,10.595L90.313,167.895z"/>
	</g>
	<path fill="#FFFFFF" d="M94.188,60.189v21.794v7h7h9.881l-25.509,27.66l-26.238-27.66h9.56h7v-7V60.189H94.188 M101.188,53.189
		H68.881v28.794H43.033l42.599,44.907l41.416-44.907h-25.859V53.189L101.188,53.189z"/>
</g>
</svg>
