
<svg version="1.1" xmlns="http://www.w3.org/2000/svg" xmlns:xlink="http://www.w3.org/1999/xlink" x="0px" y="0px" viewBox="0 0 170.08 170.08" enable-background="new 0 0 170.08 170.08" xml:space="preserve">
	 

<g id="Layer_4">
	<g>
		<path fill="#FF0000" d="M90.313,167.895c-2.9,2.913-7.648,2.913-10.566,0L2.201,90.346c-2.934-2.892-2.934-7.665,0-10.594
			L79.747,2.201c2.918-2.934,7.666-2.934,10.566,0l77.588,77.551c2.904,2.93,2.904,7.703,0,10.594L90.313,167.895z"/>
	</g>
	<path fill="#FFFFFF" d="M84.521,53.437l26.237,27.659h-9.557h-7v7v21.795H75.893V88.096v-7h-7h-9.882L84.521,53.437 M84.449,43.189
		L43.033,88.096h25.86v28.795h32.308V88.096h25.846L84.449,43.189L84.449,43.189z"/>
</g>


</svg>
