<?xml version="1.0" encoding="UTF-8"?><svg xmlns="http://www.w3.org/2000/svg" viewBox="0 0 110 35"><g id="a"/><g id="b"><g><path d="M56.63,7.2h-.97c-.16,0-.27-.12-.27-.27v-.58c0-.16,.12-.31,.27-.31h3.35c.82,0,1.48,.66,1.48,1.48v10.67c0,.16,.12,.27,.27,.27h1.17c.16,0,.27,.12,.27,.27v.62c0,.16-.12,.27-.27,.27h-6.19c-.16,0-.27-.12-.27-.27v-.62c0-.16,.12-.27,.27-.27h1.01c.16,0,.27-.12,.27-.27V7.59c0-.19-.19-.39-.39-.39m7.2,2.76h-.97c-.16,0-.27-.12-.27-.27v-.58c0-.16,.12-.27,.27-.27h3.35c.82,0,1.48,.66,1.48,1.48v7.86c0,.16,.12,.27,.27,.27h1.17c.16,0,.27,.12,.27,.27v.62c0,.16-.12,.27-.27,.27h-6.19c-.16,0-.27-.12-.27-.27v-.62c0-.16,.12-.27,.27-.27h1.01c.16,0,.27-.12,.27-.27v-7.67c0-.27-.08-.55-.39-.55m29.47,8.22v0c0,.16-.12,.27-.27,.27h-1.01c-.16,0-.27,.12-.27,.27v.62c0,.16,.12,.27,.27,.27h5.88c.16,0,.27-.12,.27-.27v-.62c0-.16-.12-.27-.27-.27h-.86c-.16,0-.27-.12-.27-.27v-6.35c0-.82,.66-1.52,1.52-1.52s1.56,.7,1.56,1.52v6.35c0,.16-.12,.27-.27,.27h-.7c-.16,0-.27,.12-.27,.27v.62c0,.16,.12,.27,.27,.27h5.88c.16,0,.27-.12,.27-.27v-.62c0-.16-.12-.27-.27-.27h-1.17c-.16,0-.27-.12-.27-.27v-6.58c0-2.02-1.64-2.88-3.43-2.88-1.28,0-2.14,.27-3,1.05-.16,.08-.19,.04-.23-.08-.23-.51-.74-.86-1.36-.86h-3.35c-.16,0-.27,.12-.27,.27v.58c0,.16,.12,.27,.27,.27h.97c.2,0,.39,.19,.39,8.22m-43.49,0c0,.16-.12,.27-.27,.27h-1.25c-.12,0-.19-.08-.23-.19l-3.54-10.94c-.23-.7-.66-1.29-1.48-1.29h-3.39c-.43,0-.66,.31-.78,.66l-3.46,11.52c-.08,.16-.23,.23-.39,.23h-1.79c-.16,0-.27,.12-.27,.27v.62c0,.16,.12,.27,.27,.27h6.19c.16,0,.27-.12,.27-.27v-.62c0-.16-.12-.27-.27-.27h-1.83c-.12,0-.27-.12-.27-.27v-.08l1.09-3.7c.04-.08,.12-.12,.19-.12h3.66c.08,0,.16,.04,.16,.12l1.17,3.7v.08c0,.16-.12,.27-.27,.27h-1.83c-.16,0-.27,.12-.27,.27v.62c0,.16,.12,.27,.27,.27h13.24c.16,0,.31-.12,.31-.27v-.62c0-.16-.16-.27-.31-.27h-1.13c-.16,0-.31-.12-.31-.27V7.51c0-.82-.66-1.48-1.44-1.48h-3.39c-.16,0-.27,.16-.27,.31v.58c0,.16,.12,.27,.27,.27h.97c.12,0,.31,.04,.31,1.32l.08,9.66Zm29.82-2.14c0,1.91-1.6,3.27-3.66,3.66-1.83,.31-3.66,.27-6.04-.27-.12,0-.19-.12-.19-.23v-3.15c0-.16,.12-.27,.27-.27h1.44c.16,0,.27,.12,.27,.27v.51c0,1.01,.08,2.22,1.95,2.22,1.64,0,2.06-.66,2.18-1.21,.12-.43,.16-1.6-1.36-1.99-1.05-.27-1.56-.31-2.76-.7-2.73-.82-2.61-5.45,1.09-6.07,1.83-.27,3.54-.27,5.92,.27,.12,0,.19,.12,.19,.23v2.3c0,.16-.12,.27-.27,.27h-1.29c-.16,0-.27-.12-.27-.27v-.19c0-.62-.12-1.67-1.95-1.67s-1.91,.97-1.91,1.36c0,.35,.12,1.01,1.32,1.28,1.05,.23,1.75,.39,2.65,.7,.7,.23,2.41,.93,2.41,2.96m6.42,3.86c-3.7-.04-5.72-2.1-5.72-5.69s2.02-5.64,5.72-5.64,5.72,1.95,5.72,5.64-2.06,5.69-5.72,5.69m-1.91-8.99c-.12,.78-.23,1.87-.23,3.27s.08,2.37,.23,3.23c.16,.97,.78,1.29,1.75,1.29s1.6-.27,1.79-1.25c.16-.86,.19-1.91,.19-3.27,0-1.25-.08-2.49-.19-3.31-.16-.97-.78-1.25-1.75-1.25s-1.64,.31-1.79,1.29m-43.61-3.04l1.4,4.48v.04c0,.08,0,.16-.12,.16h-2.77c-.12,0-.16-.04-.16-.16v-.04l1.36-4.48s.04-.12,.12-.12,.12,.04,.16,.12"/><path d="M74.31,24.53c0-.12-.12-.19-.23-.19h-.51c-.08,0-.16-.08-.16-.16v-.31c0-.08,.08-.16,.16-.16h1.79c.43,0,.78,.35,.78,.78v4.2c0,.08,.08,.16,.16,.16h.62c.08,0,.12,.04,.12,.12v.35c0,.08-.04,.12-.12,.12l-3.31,.04c-.08,0-.16-.08-.16-.16v-.35c0-.08,.08-.12,.16-.12h.55c.08,0,.16-.08,.16-.16v-4.17s0,4.17,0,0m15.14,0c0-.12-.08-.19-.19-.19h-.54c-.08,0-.12-.08-.12-.16v-.31c0-.08,.04-.16,.12-.16h1.79c.43,0,.78,.35,.78,.78v4.2c0,.08,.08,.16,.16,.16h.62c.08,0,.16,.04,.16,.12v.35c0,.08-.08,.12-.16,.12l-3.27,.04c-.12,0-.16-.08-.16-.16v-.35c0-.08,.04-.12,.16-.12h.51c.08,0,.16-.08,.16-.16v-4.17s0,4.17,0,0m-1.21,3c0,1.01-.82,1.75-1.91,1.95-.97,.16-1.95,.16-3.23-.12-.04-.04-.08-.08-.08-.16v-1.67c0-.08,.04-.12,.12-.12h.78c.08,0,.16,.04,.16,.12v.27c0,.55,.04,1.17,1.01,1.17,.89,0,1.09-.35,1.17-.62,.08-.23,.08-.86-.74-1.05-.54-.16-.82-.19-1.48-.39-1.4-.43-1.36-2.88,.62-3.23,.93-.16,1.87-.12,3.12,.16,.08,0,.12,.08,.12,.12v1.25c0,.08-.08,.16-.16,.16h-.66c-.08,0-.16-.08-.16-.16v-.12c0-.31-.04-.9-1.05-.9s-.97,.54-.97,.74,.04,.55,.66,.66c.58,.12,.93,.19,1.44,.39,.35,.12,1.25,.51,1.25,1.56m7.05,2.06c-1.95,0-3.04-1.09-3.04-3s1.09-3,3.04-3,3.08,1.01,3.08,3-1.09,3-3.08,3m-.82-4.75c-.04,.39-.12,.97-.12,1.71s.04,1.29,.12,1.75c.08,.51,.43,.66,.94,.66,.54,0,.86-.16,.93-.66,.12-.47,.12-1.01,.12-1.75,0-.62-.04-1.28-.08-1.75-.12-.51-.43-.66-.97-.66-.51,0-.86,.19-.94,.7m-11.91,2.69c0,1.01-.82,1.75-1.95,1.95-.97,.16-1.95,.16-3.19-.12-.08-.04-.12-.08-.12-.16v-1.67c0-.08,.08-.12,.16-.12h.74c.12,0,.16,.04,.16,.12v.27c0,.55,.04,1.17,1.05,1.17,.86,0,1.09-.35,1.17-.62,.04-.23,.08-.86-.74-1.05-.54-.16-.82-.19-1.48-.39-1.44-.43-1.4-2.88,.58-3.23,.97-.16,1.87-.12,3.15,.16,.04,0,.08,.08,.08,.12v1.25c0,.08-.04,.16-.12,.16h-.7c-.08,0-.16-.08-.16-.16v-.12c0-.31-.04-.9-1.01-.9s-1.01,.54-1.01,.74,.08,.55,.7,.66c.54,.12,.93,.19,1.4,.39,.39,.12,1.29,.51,1.29,1.56m-20.21,0c0,1.01-.82,1.75-1.95,1.95-.93,.16-1.95,.16-3.19-.12-.08-.04-.12-.08-.12-.16v-1.67c0-.08,.08-.12,.16-.12h.78c.08,0,.12,.04,.12,.12v.27c0,.55,.08,1.17,1.05,1.17,.86,0,1.09-.35,1.17-.62,.04-.23,.08-.86-.74-1.05-.54-.16-.82-.19-1.48-.39-1.44-.43-1.36-2.88,.58-3.23,.97-.16,1.91-.12,3.15,.16,.04,0,.12,.08,.12,.12v1.25c0,.08-.08,.16-.16,.16h-.7c-.08,0-.12-.08-.12-.16v-.12c0-.31-.08-.9-1.05-.9s-1.01,.54-1.01,.74,.08,.55,.7,.66c.58,.12,.93,.19,1.4,.39,.39,.12,1.29,.51,1.29,1.56m-16.12-1.91c.74-.23,.74-.54,.74-.74,0-.23-.16-.62-.93-.62s-.86,.54-.86,1.09v.12c0,.08-.08,.16-.16,.16h-.78c-.08,0-.16-.08-.16-.16v-1.44s.04-.12,.12-.12c1.09-.27,2.22-.31,2.96-.19,.78,.16,1.71,.43,1.71,1.48v3.5c0,.08,.04,.16,.12,.16h.58c.08,0,.16,.04,.16,.16v.31c0,.08-.08,.16-.16,.16h-3.81c-2.69-.04-2.61-2.49-1.01-3.31,.47-.23,.9-.35,1.48-.54m.82,2.69v-1.87c0-.23-.16-.35-.43-.31-.27,.04-.43,.12-.62,.27-.54,.47-.51,1.32-.47,1.56,.12,.66,.55,.78,.94,.78,.47,0,.58-.23,.58-.43m-7.55,.39v0c0,.08-.08,.16-.16,.16h-.54c-.08,0-.16,.04-.16,.12v.35c0,.08,.08,.12,.16,.12l3.27,.04c.08,0,.12-.08,.12-.16v-.31c0-.12-.04-.16-.12-.16h-.58c-.08,0-.16-.08-.16-.16v-3c0-.62,.27-.82,.62-1.01,.23-.12,.7-.23,.74,.16l.04,.62c0,.08,.08,.12,.16,.12h.82c.08,0,.16-.04,.16-.12v-1.44c0-.08-.08-.16-.12-.19-.12-.04-.39-.23-1.09-.16-.47,.08-.78,.19-1.25,.62-.04,.04-.08,.04-.08-.04-.08-.35-.43-.54-.78-.54h-1.25v-1.4c0-.08-.08-.16-.16-.16h-5.99c-.12,0-.16,.08-.16,.16v1.87c0,.08,.04,.16,.12,.16h.86c.12,0,.16-.08,.16-.16v-1.25c0-.12,.12-.19,.23-.19h.51c.12,0,.19,.08,.19,.19v5.76c0,.08-.08,.16-.16,.16h-.51c-.08,0-.16,.04-.16,.12v.35c0,.08,.04,.12,.16,.12h3.58c.08,0,.16-.04,.16-.12v-.35c0-.08-.08-.12-.16-.12h-.62c-.08,0-.16-.08-.16-.16v-5.76c0-.12,.12-.19,.23-.19h.51c.12,0,.19,.08,.19,.19v1.25c0,.08,.08,.16,.16,.16h1.01c.12,0,.19,.08,.19,4.36m23.9,0v0c0,.08-.08,.16-.16,.16h-.55c-.08,0-.16,.04-.16,.12v.35c0,.08,.08,.12,.16,.12l3.15,.04c.08,0,.12-.08,.12-.16v-.31c0-.12-.04-.16-.12-.16h-.47c-.08,0-.16-.08-.16-.16v-3.35c0-.43,.43-.82,.9-.82,.43,0,.86,.39,.86,.82v3.35c0,.08-.04,.16-.12,.16h-.47c-.08,0-.16,.04-.16,.12v.35c0,.08,.04,.12,.16,.12l3.15,.04c.08,0,.16-.08,.16-.16v-.31c0-.12-.08-.16-.16-.16h-.54c-.12,0-.16-.08-.16-.16v-3.35c0-.43,.39-.82,.86-.82,.43,0,.9,.39,.9,.82v3.35c0,.08-.04,.16-.16,.16h-.31c-.12,0-.16,.04-.16,.12v.35c0,.08,.04,.12,.12,.12l3.11,.04c.08,0,.16-.08,.16-.16v-.31c0-.12-.08-.16-.16-.16h-.62c-.08,0-.12-.08-.12-.16v-3.5c0-1.01-1.01-1.6-1.95-1.6-.66,0-1.36,.35-1.83,.82-.04,.08-.12,.08-.16,0-.35-.51-.93-.82-1.64-.82-.66,0-1.13,.19-1.6,.58-.08,.08-.12,.08-.16,0-.12-.27-.39-.47-.7-.47h-1.79c-.08,0-.16,.08-.16,.16v.31c0,.08,.08,.16,.16,.16h.51c.12,0,.23,.08,.23,4.36m35.94,0v0c0,.08-.08,.16-.16,.16h-.55c-.08,0-.16,.04-.16,.12v.35c0,.08,.08,.16,.16,.16l3.15-.04c.08,0,.12-.04,.12-.12v-.35c0-.08-.04-.12-.12-.12h-.47c-.08,0-.16-.08-.16-.16v-3.39c0-.43,.39-.82,.82-.82,.47,0,.82,.39,.82,.82v3.39c0,.08-.04,.16-.16,.16h-.35c-.08,0-.16,.04-.16,.12v.35c0,.08,.08,.16,.16,.16l3.11-.04c.08,0,.16-.04,.16-.12v-.35c0-.08-.08-.12-.16-.12h-.62c-.08,0-.12-.08-.12-.16v-3.5c0-1.09-.9-1.56-1.83-1.56-.7,0-1.13,.16-1.6,.58-.08,.04-.12,.04-.16-.04-.12-.27-.39-.47-.7-.47h-1.79c-.08,0-.16,.08-.16,.16v.31c0,.08,.08,.16,.16,.16h.51c.12,0,.23,.08,.23,4.36m-48.67,0v0c0,.08-.08,.16-.16,.16h-.55c-.08,0-.12,.04-.12,.12v.35c0,.08,.04,.16,.12,.16l3.15-.04c.08,0,.16-.04,.16-.12v-.35c0-.08-.08-.12-.16-.12h-.47c-.08,0-.16-.08-.16-.16v-3.39c0-.43,.39-.82,.82-.82,.47,0,.82,.39,.82,.82v3.39c0,.08-.04,.16-.12,.16h-.39c-.08,0-.16,.04-.16,.12v.35c0,.08,.08,.16,.16,.16l3.12-.04c.08,0,.16-.04,.16-.12v-.35c0-.08-.08-.12-.16-.12h-.58c-.12,0-.16-.08-.16-.16v-3.5c0-1.09-.86-1.56-1.83-1.56-.66,0-1.13,.16-1.6,.58-.08,.04-.12,.04-.12-.04-.16-.27-.43-.47-.74-.47h-1.79c-.08,0-.12,.08-.12,.16v.31c0,.08,.04,.16,.12,.16h.54c.12,0,.19,.08,.19,4.36"/><path d="M19.92,16.78c-2.88-3.62-8.06-3.15-9.5,1.25,0,.08-.08,.12-.16,.12-.12,0-.19-.08-.19-.19-.08-8.53,10.01-9.42,13.04-3.97,.16,.39,.31,.74,.31,1.17,0,1.17-.97,2.14-2.14,2.14-.51,0-1.05-.16-1.36-.51"/><path d="M14.16,18.22c2.88,3.62,8.06,3.15,9.5-1.25,0-.08,.08-.12,.16-.12,.12,0,.19,.08,.19,.19,.08,8.53-10.01,9.42-13.04,3.97-.16-.35-.31-.74-.31-1.17,0-1.17,.94-2.14,2.14-2.14,.51,0,1.05,.16,1.36,.51"/><path d="M5.09,21.61c-.47-1.44-.66-2.65-.66-4.09,0-7.01,5.64-12.65,12.61-12.65,4.71,0,8.8,2.57,10.98,6.39,.16,.35,.27,.7,.27,1.09,0,1.29-1.05,2.34-2.34,2.34-.62,0-1.29-.19-1.64-.7C16.92,4.2,3.88,11.21,5.52,21.53c0,.12-.08,.23-.19,.23-.12,.04-.19-.04-.23-.16"/><path d="M28.99,13.39c.47,1.44,.66,2.65,.66,4.13,0,6.97-5.64,12.62-12.61,12.62-4.71,0-8.8-2.57-10.98-6.39-.16-.31-.27-.7-.27-1.09,0-1.29,1.05-2.34,2.34-2.34,.62,0,1.25,.19,1.64,.7,7.4,9.77,20.44,2.76,18.8-7.55,0-.12,.08-.23,.19-.23,.12-.04,.19,.04,.23,.16"/></g></g></svg>