<?xml version="1.0" encoding="UTF-8"?><svg xmlns="http://www.w3.org/2000/svg" viewBox="0 0 180 35"><g id="a"/><g id="b"><g><path d="M82.03,18.77h-3.77c-.06,0-.11-.05-.09-.12l3.16-6.19c.04-.09,.16-.13,.19,0l.67,6.15c.02,.11-.04,.17-.16,.17m6.83,5.59l-1.75-13.8c-.1-.75-.19-1.29-1.62-1.29h-7.35c-.92,0-1.37,.05-1.7,.63l-8.04,14.65c-.34,.58-.06,1.09,.51,1.09h4.74c.63,0,.95-.14,1.29-.7,.46-.84,.9-1.7,1.25-2.46,.05-.06,.1-.09,.18-.09h6.08c.07,0,.16,.06,.17,.13l.23,2.13c.08,.78,.47,.98,1.1,.98h3.91c.84,0,1.13-.4,1-1.29"/><path d="M149.16,18.77h-3.77c-.06,0-.11-.05-.09-.13l3.16-6.19c.04-.1,.17-.14,.19,0l.67,6.14c.02,.11-.04,.17-.16,.17m6.83,5.59l-1.75-13.8c-.09-.75-.19-1.28-1.62-1.28h-7.35c-.92,0-1.38,.05-1.71,.63l-8.04,14.65c-.34,.59-.07,1.1,.51,1.1h4.74c.63-.02,.95-.15,1.29-.7,.46-.84,.9-1.7,1.26-2.46,.04-.06,.09-.09,.18-.1h6.08c.07,0,.16,.07,.16,.14l.24,2.13c.09,.78,.47,.98,1.1,.98h3.92c.83,0,1.13-.4,.99-1.29"/><path d="M128.29,24.55l1.26-6.9c.08-.37-.1-.39-.23-.19l-5.74,7.5c-.29,.39-.74,.69-1.11,.69h-1.39c-.38,0-.69-.27-.8-.57l-2.77-7.6c-.12-.31-.21-.21-.26,.07l-1.34,7.31c-.08,.45-.38,.79-.85,.79h-4.18c-.61,0-.89-.31-.77-.93l2.81-14.29c.18-.91,.67-1.16,1.35-1.16h4.57c.84,0,1.42,.18,1.65,.78l2.43,6.57c.14,.31,.16,.31,.36,.03l5.19-6.61c.44-.57,.81-.77,1.59-.77h5.75c1,0,1.13,.52,1,1.23l-2.78,14.45c-.1,.46-.44,.76-.94,.76h-3.97c-.85,0-.94-.57-.84-1.14"/><path d="M102.7,16.47l1.12-6.06c.16-.91,.62-1.09,1.35-1.09h3.59c.67,0,1.16,.24,.97,1.17l-2.77,13.99c-.18,.91-.64,1.17-1.21,1.17h-2.88c-.51,0-.94-.17-1.17-.56l-3.89-6.62c-.09-.16-.16-.11-.19,0l-1.07,5.88c-.14,.76-.35,1.33-1.17,1.33h-4.12c-.68,0-.92-.36-.79-1.04l2.68-14.2c.17-.96,.69-1.12,1.17-1.12h2.98c.74,0,1.09,.29,1.57,1.09l3.61,6.07c.06,.11,.2,.16,.23-.01"/><path d="M170.09,13.53c-.02,.34-.23,1.39-.38,2.03-.17,.75-.47,.94-1.55,.94h-2.93c-.19,0-.23-.06-.19-.21l.67-3.49s.05-.09,.13-.09c.76-.02,3.32-.04,3.58,0,.56,.06,.7,.3,.67,.82m3.2-4.28l-11.45,.02c-1.29,0-1.6,.24-1.76,1.06l-2.79,14.33c-.13,.65-.01,.94,.78,.99,.41,.03,3.88,0,4.25,0,.64,0,.96-.31,1.08-.82,.36-1.58,.83-4.06,.93-4.61,.05-.27,.07-.29,.52-.29h3.19c.53,0,.74,.25,.62,.99l-.62,3.84c-.08,.51,.12,.88,.73,.88,.82,0,3.66,.03,4.18,0,.8,0,1.12-.18,1.3-1.22l.65-3.58c.21-1.12,.22-2.7-1.57-3.29-.09-.03-.08-.11-.01-.12,1.46-.4,2.05-1.27,2.41-2.35,.22-.69,.41-1.9,.56-2.81,.34-2.08-.93-3.01-2.97-3.01"/><path d="M62.46,14.83l4.19-5.14c.23-.27,.36-.45,.81-.45h5.69c.8,0,.67,.52,.47,.77l-8.39,10.07c-.06,.08-.12,.32-.14,.41l-.99,4.56c-.1,.51-.53,.7-1.08,.7h-4.27c-.88,0-.94-.5-.83-1.08l.81-4.03c.03-.15,.04-.23-.02-.35l-5.42-10.4c-.15-.36,.09-.66,.56-.66h4.78c.46,0,.84,.16,1,.5l2.48,5.09c.1,.22,.22,.15,.35,0"/><polygon points="25.47 27.83 44.99 19.74 44.99 14.83 25.47 22.91 25.47 27.83"/><polygon points="24.34 15.73 3.69 7.17 3.69 12.09 24.34 20.64 44.99 12.09 44.99 7.17 24.34 15.73"/><polygon points="3.69 19.74 23.21 27.82 23.21 22.91 3.69 14.83 3.69 19.74"/></g></g></svg>