<?xml version="1.0" encoding="UTF-8"?><svg xmlns="http://www.w3.org/2000/svg" viewBox="0 0 148 35"><g id="a"/><g id="b"><g><path d="M108.22,20.23c-.08,.31-.33,.57-.61,.57h-4.33c-.38,0-.76-.32-.67-.76l.94-5.17c.08-.42,.31-.69,.69-.69h8.57l.71-3.86h-11.28c-.94,0-1.72,.67-1.89,1.56l-.11,.59-1.54,8.38-.27,1.45c-.02,.12-.03,.24-.03,.37,0,1.12,.91,2.03,2.03,2.03h8.61c1.06,0,1.95-.75,2.15-1.75l1.27-6.91h-6.52l-.51,2.92h3.03l-.24,1.28ZM51.81,10.32l-3.05,16.51-10.51-15.24-3.82,20.8h4.09l1.89-10.26,7.09,10.26h4.47l4.05-22.06h-4.23Zm-3.74,12.83l3.76-20.53h-4l-1.92,10.43-7.21-10.43h-4.49l-4.08,22.06h4.23l3.08-16.95,10.64,15.41ZM23.18,14.17h7.23l.71-3.86h-11.21l-2.64,14.37h11.19l.71-3.88h-7.22l.34-1.84h7.21l.55-2.94h-7.23l.34-1.85Zm37.79,0h7.11l.71-3.86h-11.1l-2.65,14.37h11.15l.7-3.88h-7.17l.35-1.84h7.16l.54-2.94h-7.1l.31-1.85Zm76.02-3.85l-1.42,7.62-4.31-7.62h-3.27l-2.65,14.37h3.72l1.45-7.85,4.37,7.85h3.24l2.64-14.37h-3.76ZM14.87,16.03h-3.54c-.61,0-.81-.44-.72-.95,.07-.42,.44-.9,1.05-.9h5.87l.72-3.86H8.96c-.91,0-1.7,.64-1.88,1.49l-.03,.17-.86,4.72c-.02,.12-.04,.25-.04,.38,0,1.05,.9,1.9,1.95,1.9h3.5c.48,0,.8,.53,.72,.96-.1,.5-.3,.87-1.06,.87H5.41l-.71,3.89H13.76c1.75,0,2.13-1.66,2.13-1.66,0,0,.88-4.05,.88-5.1s-.85-1.9-1.9-1.9m83.6-3.36l-1.87,10.37c-.16,.93-1.37,1.64-2.36,1.64h-8.96c-1.39,0-2.68-1.3-2.28-2.93,.03-.1,1.78-9.77,1.78-9.77,.16-.93,1.11-1.64,2.1-1.64h9.66c1.39,0,1.98,.98,1.98,1.91,0,.1-.05,.42-.05,.42m-15.43-.11l-.59,3.19-.03,.13c-.18,.79-.8,1.4-1.62,1.49,.63,.32,1,.97,1,1.72,0,.09,0,.18-.02,.26-.01,.1-.69,3.69-.69,3.69-.16,.93-.86,1.65-2.59,1.65h-10.71l2.65-14.37h10.72c1.39,0,1.91,1,1.91,1.93,0,.1,0,.21-.02,.31m35.39,1.62h7.17l.71-3.86h-11.13l-2.66,14.37h11.15l.74-3.88h-7.19l.34-1.84h7.17l.53-2.94h-7.16l.33-1.85Zm-40.38,0h-4.42l-.34,1.84h4.43c.47,0,.83-.33,.94-.9,.1-.55-.19-.93-.61-.94m15.37,0h-4.71c-.31,0-.48,.26-.56,.56l-.95,5.21c-.14,.55,.34,.85,.65,.85h4.64c.31,0,.53-.26,.61-.56l.97-5.21c.14-.55-.34-.85-.65-.85m-16.26,4.79h-4.43l-.33,1.83h4.42c.49,0,.87-.4,.94-.91,.07-.48-.15-.92-.61-.92"/><path d="M143.46,9.7h.17c.2,0,.36-.07,.36-.23,0-.14-.11-.24-.33-.24-.1,0-.16,0-.2,.02v.45Zm0,.88h-.36v-1.56c.14-.03,.34-.06,.6-.06,.3,0,.43,.05,.55,.12,.09,.07,.15,.19,.15,.33,0,.18-.13,.32-.33,.37v.02c.15,.05,.24,.17,.29,.38,.05,.24,.08,.33,.11,.38h-.39c-.05-.06-.08-.19-.12-.37-.03-.17-.12-.25-.32-.25h-.17v.62Zm.24-2.06c-.69,0-1.2,.56-1.2,1.25s.52,1.25,1.22,1.25c.69,0,1.19-.56,1.19-1.25s-.51-1.25-1.2-1.25h-.01Zm.02-.32c.9,0,1.6,.7,1.6,1.57s-.7,1.58-1.61,1.58-1.62-.69-1.62-1.58,.72-1.57,1.62-1.57h0Z"/></g></g></svg>