<?xml version="1.0" encoding="UTF-8"?><svg xmlns="http://www.w3.org/2000/svg" viewBox="0 0 140 35"><g id="a"/><g id="b"><g><path d="M59.66,11.46c-.37-.31-.84-.51-1.34-.51-.37,0-.86,.22-.86,.65s.55,.63,.89,.74l.51,.16c1.08,.32,1.91,.86,1.91,2.12,0,.77-.19,1.56-.8,2.09-.61,.51-1.42,.73-2.2,.73-.98,0-1.93-.33-2.73-.89l.86-1.62c.5,.44,1.1,.8,1.79,.8,.47,0,.98-.24,.98-.78s-.79-.76-1.22-.88c-1.26-.36-2.1-.69-2.1-2.19s1.12-2.6,2.67-2.6c.78,0,1.74,.25,2.43,.64l-.8,1.56Z"/><path d="M63.51,8.68v3.93h.02c.43-.58,.96-.84,1.69-.84,1.34,0,1.98,.88,1.98,2.22v3.23h-1.87v-2.7c0-.62-.09-1.25-.84-1.25s-.98,.64-.98,1.25v2.7h-1.87V8.68h1.87Z"/><path d="M72.07,13.81c-.09-.5-.56-.83-1.06-.83-.54,0-1,.29-1.11,.83h2.17Zm1.74,1.08h-3.94c0,.76,.4,1.17,1.17,1.17,.4,0,.69-.13,.89-.48h1.8c-.3,1.24-1.48,1.81-2.68,1.81-1.75,0-3.05-.99-3.05-2.81s1.2-2.82,2.92-2.82c1.83,0,2.89,1.13,2.89,2.93v.19Z"/><rect x="74.61" y="8.68" width="1.87" height="8.53"/><rect x="77.67" y="8.68" width="1.87" height="8.53"/><polygon points="86.25 15.51 88.67 15.51 88.67 17.22 84.24 17.22 84.24 9.47 86.25 9.47 86.25 15.51"/><path d="M91.07,11.94v2.82c0,.67,.16,1.14,.94,1.14s.94-.47,.94-1.14v-2.82h1.87v3.18c0,1.74-1.22,2.27-2.81,2.27s-2.81-.54-2.81-2.27v-3.18h1.87Z"/><path d="M97.71,14.59c0,.67,.44,1.18,1.2,1.18s1.2-.51,1.2-1.18-.44-1.19-1.2-1.19-1.2,.54-1.2,1.19m-1.81-5.9h1.87v3.77c.4-.46,1.03-.69,1.64-.69,1.56,0,2.64,1.3,2.64,2.81s-1.09,2.82-2.66,2.82c-.62,0-1.25-.24-1.59-.76h-.02v.59h-1.87V8.68Z"/><path d="M104.79,12.81h.02c.36-.65,.98-.94,1.71-.94h.36v1.8c-.26-.14-.5-.17-.79-.17-1.04,0-1.3,.69-1.3,1.59v2.13h-1.87v-5.28h1.87v.86Z"/><path d="M109.4,17.22h-1.87v-5.28h1.87v5.28Zm.11-7.3c0,.58-.47,1.05-1.05,1.05s-1.05-.47-1.05-1.05,.47-1.05,1.05-1.05,1.05,.47,1.05,1.05"/><path d="M114.39,13.66c-.28-.21-.61-.37-.97-.37-.72,0-1.29,.56-1.29,1.29s.54,1.29,1.32,1.29c.33,0,.69-.13,.94-.36v1.58c-.41,.21-.86,.3-1.32,.3-1.56,0-2.87-1.16-2.87-2.76,0-1.7,1.3-2.87,2.95-2.87,.43,0,.86,.1,1.23,.31v1.58Z"/><path d="M117.05,14.59c0,.67,.44,1.18,1.2,1.18s1.2-.51,1.2-1.18-.44-1.19-1.2-1.19-1.2,.55-1.2,1.19m4.22,2.63h-1.87v-.59h-.02c-.33,.52-.98,.76-1.59,.76-1.56,0-2.66-1.31-2.66-2.82s1.08-2.81,2.64-2.81c.61,0,1.24,.23,1.63,.69v-.51h1.87v5.27Z"/><path d="M124.33,12.62h.02c.43-.64,.95-.85,1.69-.85,1.42,0,1.99,.89,1.99,2.19v3.26h-1.87v-2.57c0-.5,.08-1.39-.84-1.39-.76,0-.98,.56-.98,1.22v2.73h-1.87v-5.28h1.87v.68Z"/><polygon points="131.25 17.22 129.38 17.22 129.38 13.49 128.77 13.49 128.77 11.94 129.38 11.94 129.38 10.36 131.25 10.36 131.25 11.94 132.31 11.94 132.31 13.49 131.25 13.49 131.25 17.22"/><path d="M136.34,13.3c-.29-.15-.69-.26-1.01-.26-.22,0-.59,.09-.59,.36,0,.36,.59,.41,.84,.46,.87,.17,1.53,.59,1.53,1.56,0,1.39-1.26,1.96-2.49,1.96-.75,0-1.49-.22-2.13-.61l.68-1.31c.38,.27,1.02,.54,1.48,.54,.24,0,.59-.11,.59-.4,0-.41-.59-.43-1.17-.59-.59-.15-1.17-.44-1.17-1.39,0-1.3,1.17-1.87,2.32-1.87,.6,0,1.19,.09,1.74,.34l-.63,1.19Z"/><path d="M57.11,27.61h.45c1.2,0,2.23-.66,2.23-2.17,0-1.39-.92-2.17-2.21-2.17h-.47v4.34Zm-2.02-6.05h2.86c2.16,0,3.94,1.7,3.94,3.88s-1.79,3.88-3.94,3.88h-2.86v-7.75Z"/><path d="M64.6,29.32h-1.87v-5.28h1.87v5.28Zm.11-7.3c0,.58-.47,1.05-1.05,1.05s-1.05-.47-1.05-1.05,.47-1.05,1.05-1.05,1.05,.47,1.05,1.05"/><path d="M69.27,25.4c-.29-.15-.69-.26-1.01-.26-.22,0-.59,.09-.59,.36,0,.36,.59,.41,.84,.46,.87,.17,1.53,.59,1.53,1.56,0,1.39-1.26,1.96-2.49,1.96-.75,0-1.49-.22-2.13-.61l.68-1.31c.38,.27,1.02,.54,1.48,.54,.24,0,.59-.11,.59-.4,0-.41-.59-.43-1.17-.59-.59-.15-1.17-.44-1.17-1.39,0-1.3,1.17-1.87,2.32-1.87,.6,0,1.19,.09,1.74,.34l-.63,1.19Z"/><polygon points="73.06 29.32 71.18 29.32 71.18 25.58 70.58 25.58 70.58 24.04 71.18 24.04 71.18 22.46 73.06 22.46 73.06 24.04 74.12 24.04 74.12 25.58 73.06 25.58 73.06 29.32"/><path d="M76.53,24.91h.02c.36-.65,.98-.94,1.71-.94h.36v1.8c-.26-.14-.5-.17-.79-.17-1.04,0-1.3,.69-1.3,1.59v2.13h-1.87v-5.27h1.87v.86Z"/><path d="M81.14,29.32h-1.87v-5.28h1.87v5.28Zm.11-7.3c0,.58-.47,1.05-1.05,1.05s-1.05-.47-1.05-1.05,.47-1.05,1.05-1.05,1.05,.47,1.05,1.05"/><path d="M84.07,26.68c0,.67,.44,1.18,1.2,1.18s1.2-.51,1.2-1.18-.44-1.19-1.2-1.19-1.2,.54-1.2,1.19m-1.81-5.9h1.87v3.77c.4-.46,1.03-.69,1.63-.69,1.56,0,2.64,1.3,2.64,2.81s-1.09,2.82-2.66,2.82c-.62,0-1.25-.24-1.59-.76h-.02v.59h-1.87v-8.53Z"/><path d="M91.12,24.04v2.82c0,.67,.16,1.14,.94,1.14s.94-.47,.94-1.14v-2.82h1.87v3.18c0,1.74-1.22,2.27-2.81,2.27s-2.81-.54-2.81-2.27v-3.18h1.87Z"/><polygon points="98.05 29.32 96.18 29.32 96.18 25.58 95.58 25.58 95.58 24.04 96.18 24.04 96.18 22.46 98.05 22.46 98.05 24.04 99.11 24.04 99.11 25.58 98.05 25.58 98.05 29.32"/><path d="M101.24,26.68c0,.67,.44,1.18,1.2,1.18s1.2-.51,1.2-1.18-.44-1.19-1.2-1.19-1.2,.55-1.2,1.19m4.38,0c0,1.79-1.48,2.81-3.18,2.81s-3.18-1.01-3.18-2.81,1.48-2.82,3.18-2.82,3.18,1.02,3.18,2.82"/><path d="M108.29,24.91h.02c.36-.65,.98-.94,1.71-.94h.36v1.8c-.26-.14-.5-.17-.79-.17-1.04,0-1.3,.69-1.3,1.59v2.13h-1.87v-5.27h1.87v.86Z"/><path d="M35.19,20.73l-5.42,3.94-.66,5.32h-6.58l-.97,.71c-.24,.18-.54,.27-.84,.27s-.6-.09-.84-.27l-.97-.71h-6.58l-.67-5.32-5.42-3.94c-.16-.62-.24-1.25-.24-1.89,0-1.06,.22-2.12,.66-3.09l9.6,9.7L6.92,13.93c.37-1.49,1.18-2.84,2.33-3.86l8.36,14.43-7.41-15.8c.96-1.28,2.3-2.22,3.82-2.69l5.11,17.91L15.4,5.28c1.14-.64,2.42-.98,3.72-.98,.28,0,.55,.02,.83,.05l.76,19.4,.76-19.4c.27-.03,.55-.05,.83-.05,1.3,0,2.59,.34,3.72,.98l-3.74,18.65L27.4,6.02c1.52,.47,2.86,1.41,3.82,2.69l-7.41,15.8,8.36-14.43c1.15,1.02,1.96,2.37,2.33,3.86l-9.33,11.52,9.6-9.7c.43,.97,.66,2.03,.66,3.09,0,.64-.08,1.27-.24,1.89M20.72,1C10.87,1,2.88,8.99,2.88,18.84c0,1.2,.12,2.39,.36,3.57l5.49,3.99,.84,6.71h9.05l.52,.38c.46,.33,1.01,.51,1.57,.51s1.12-.18,1.57-.51l.52-.38h9.05l.84-6.71,5.49-3.99c.24-1.17,.36-2.37,.36-3.57C38.55,8.99,30.56,1,20.72,1"/></g></g></svg>