<?xml version="1.0" encoding="UTF-8"?><svg xmlns="http://www.w3.org/2000/svg" viewBox="0 0 110 35"><g id="a"/><g id="b"><path d="M106.26,26.3c0,.36-.18,.5-.52,.52l.47,.82h-.47l-.43-.82h-.3v.82h-.43v-1.93h.94c.45,0,.75,.08,.75,.59m-.74,.23c.22,0,.34-.05,.34-.29,0-.19-.25-.19-.44-.19h-.42v.49h.52Zm-.21-1.7c1.03,0,1.86,.83,1.86,1.87s-.82,1.86-1.86,1.86-1.85-.83-1.85-1.86,.82-1.87,1.85-1.87m0,3.28c.8,0,1.42-.59,1.42-1.42s-.62-1.43-1.42-1.43-1.41,.59-1.41,1.43,.61,1.42,1.41,1.42m-11.73-21.07c6.21,0,10.15,7.78,3.34,12.36l5.86,8.23h-6.15l-4.59-6.32v6.32h-5.51V7.05h7.05Zm.03,8.74c1.1,0,1.98-.89,1.98-1.98s-.89-1.98-1.98-1.98h-1.6v3.96h1.6Zm-14.06,3.88h5.21v-4.61h-5.22l.02-3.25h5.65V7.05h-11.42V27.64h11.47v-4.83h-5.71v-3.14ZM30.81,6.44c5.86,0,10.62,4.81,10.62,10.73s-4.75,10.73-10.62,10.73-10.62-4.81-10.62-10.73,4.75-10.73,10.62-10.73m0,16.01c2.64,0,4.78-2.36,4.78-5.28s-2.14-5.28-4.78-5.28-4.78,2.37-4.78,5.28,2.14,5.28,4.78,5.28M5,7.05V27.64h5.63v-7.34h.01l6.31,7.35h7.45l-9.29-10.79L23.24,7.05h-7.3l-5.32,6.12V7.05H5Zm48.67,7.22h-5.68V7.05h-5.63V27.64h5.63v-7.66h5.68v7.66h5.62V7.05h-5.62v7.22Zm12.66,8.11h6.32v5.26h-11.95V7.05h5.63v15.33Z"/></g></svg>