<?xml version="1.0" encoding="UTF-8"?><svg xmlns="http://www.w3.org/2000/svg" viewBox="0 0 138 35"><g id="a"/><g id="b"><g><path d="M21.63,8.52c-.86,0-1.57,.3-2.18,.88l4.66,4.63c.58-.6,.86-1.34,.86-2.15,0-.93-.32-1.72-.97-2.39-.65-.65-1.44-.97-2.37-.97m2.43,12.35c-.86,.91-2.41,2.48-4.63,4.7,.62,.58,1.34,.86,2.18,.86,.93,0,1.7-.34,2.35-1.01,.65-.67,.97-1.47,.97-2.39,0-.8-.28-1.53-.86-2.15m-2.43-1.1c-.91,0-1.68,.32-2.33,.95-.62,.62-.95,1.4-.95,2.33,0,.3,.02,.56,.09,.8l3.97-4.01c-.28-.04-.52-.06-.78-.06m-3.21-8.73c-.06,.24-.11,.52-.11,.84,0,.93,.32,1.7,.97,2.33,.65,.62,1.42,.95,2.35,.95,.32,0,.6-.02,.84-.06l-4.05-4.05Zm-8.19,8.73c-.24,0-.45,.02-.67,.04l3.88,3.9c.04-.24,.09-.45,.09-.67,0-.93-.32-1.7-.95-2.33-.65-.62-1.42-.95-2.35-.95m3.25-8.68c-.78,.77-2.09,2.11-3.99,3.99,.28,.04,.52,.06,.73,.06,.95,0,1.75-.3,2.39-.93,.65-.62,.99-1.4,.99-2.35,0-.24-.04-.49-.13-.77m10.54,5.49c-.69,.39-1.49,.58-2.39,.58-1.49,0-2.76-.52-3.79-1.55-1.06-1.03-1.57-2.31-1.57-3.79,0-.82,.19-1.57,.56-2.31l-.86-.95c-.11,.11-.41,.41-.88,.91,.37,.73,.54,1.51,.54,2.35,0,1.49-.52,2.76-1.57,3.79-1.06,1.03-2.33,1.55-3.81,1.55-.75,0-1.53-.17-2.31-.52l-.75,.76,.77,.77c.82-.34,1.57-.52,2.31-.52,1.51,0,2.78,.52,3.84,1.57,1.06,1.06,1.57,2.33,1.57,3.84,0,.82-.17,1.59-.5,2.31l.84,.88,.8-.84c-.34-.78-.52-1.55-.52-2.35,0-1.49,.52-2.76,1.57-3.81,1.03-1.06,2.31-1.59,3.81-1.59,.82,0,1.62,.19,2.39,.58l.84-.84-.88-.82ZM7.8,20.85c-.56,.6-.82,1.34-.82,2.2s.32,1.7,.97,2.37c.65,.67,1.4,1.01,2.31,1.01s1.64-.3,2.24-.93l-4.7-4.65Zm2.43-12.33c-.93,0-1.72,.32-2.37,.99-.65,.65-.97,1.44-.97,2.37,0,.86,.28,1.57,.86,2.18l4.78-4.63c-.67-.6-1.42-.91-2.31-.91m15.3,10.88c.99,1.06,1.49,2.28,1.49,3.68,0,1.51-.52,2.78-1.57,3.84-1.06,1.06-2.33,1.57-3.84,1.57s-2.67-.5-3.68-1.47l-1.98,1.98-1.98-2c-1.06,.99-2.31,1.49-3.75,1.49s-2.78-.52-3.81-1.57c-1.03-1.06-1.57-2.33-1.57-3.84,0-1.4,.5-2.63,1.47-3.68-.28-.28-.93-.93-1.94-1.96l1.96-1.96c-.99-1.04-1.47-2.26-1.47-3.64,0-1.51,.52-2.78,1.55-3.84,1.03-1.06,2.31-1.57,3.81-1.57s2.72,.5,3.75,1.51c.3-.28,.95-.95,1.98-1.96,.43,.41,1.1,1.06,1.96,1.94,1.06-.99,2.28-1.49,3.71-1.49,1.51,0,2.78,.52,3.84,1.57,1.04,1.03,1.55,2.33,1.55,3.84,0,1.38-.47,2.61-1.44,3.64l1.94,1.94"/><path d="M36.93,16.84h3.3c1.23,0,2.13-.19,2.72-.6,.71-.47,1.08-1.31,1.08-2.48s-.39-2.05-1.14-2.52c-.58-.37-1.47-.54-2.67-.54h-3.28v6.14Zm-4.33-9.7h9.05c2.28,0,4.03,.69,5.24,2.05,1.03,1.19,1.55,2.69,1.55,4.55s-.52,3.38-1.55,4.57c-1.21,1.36-2.95,2.05-5.24,2.05h-4.72v7.39h-4.33"/><path d="M59.17,18.7c-.39-2.09-1.44-3.15-3.19-3.15-1.12,0-1.98,.39-2.63,1.16-.47,.58-.73,1.25-.73,1.98h6.55Zm-6.55,2.59c0,2.48,1.21,3.73,3.62,3.73,.65,0,1.27-.17,1.9-.5,.69-.37,1.12-.84,1.29-1.4h3.66c-1.12,3.32-3.47,4.98-7,4.98-2.33,0-4.18-.71-5.56-2.15-1.38-1.44-2.09-3.32-2.09-5.62s.67-4.18,2-5.65c1.44-1.57,3.32-2.37,5.65-2.37s4.2,.88,5.52,2.67c1.16,1.59,1.75,3.68,1.75,6.31"/><path d="M65.27,12.6h3.77v2.52h.04c.67-1.14,1.34-1.9,2.02-2.26,.65-.35,1.66-.54,3-.56,.26,0,.54,.04,.84,.15v3.77c-.37-.09-.82-.13-1.38-.13-2.89,0-4.33,1.66-4.33,4.96v6.68h-3.96"/><path d="M91.15,27.75c-.19-.02-.69-.04-1.49-.04s-1.9,0-3.32,.02l-4.61-6.9-1.29,1.27v5.6h-3.88V7.15h3.88v10.71l5.11-5.32h4.81l-5.62,5.65"/><path d="M92.25,27.73h4.1V12.53h-4.1v15.19Zm-.17-18.73c0-.62,.22-1.16,.65-1.62,.43-.43,.97-.67,1.6-.67s1.16,.21,1.59,.67c.43,.43,.65,.97,.65,1.62s-.21,1.16-.65,1.59c-.43,.43-.97,.65-1.59,.65s-1.16-.22-1.6-.65-.65-.97-.65-1.59"/><path d="M98.44,12.55h3.86v2.46h.11c.58-.97,1.23-1.66,1.9-2.02,.82-.45,1.62-.67,2.41-.67,2.15,0,3.66,.56,4.5,1.68,.71,.95,1.08,2.48,1.08,4.63v9.09h-4.05v-8.34c0-1.08-.15-1.9-.43-2.46-.41-.8-1.21-1.19-2.39-1.19s-1.94,.45-2.43,1.34c-.35,.62-.52,1.59-.52,2.91v7.74h-4.03"/><path d="M117.72,22.86c0,.71,.37,1.34,1.1,1.9,.54,.41,1.25,.6,2.13,.6,1.87,0,2.82-.62,2.82-1.9,0-.67-.75-1.23-2.28-1.68-.5-.15-1.32-.34-2.41-.6-1.19-.26-1.98-.5-2.41-.69-1.57-.69-2.37-1.79-2.37-3.28,0-3.17,2.15-4.74,6.47-4.74s6.57,1.55,6.57,4.68h-3.75c0-1.31-.97-1.98-2.91-1.98-1.47,0-2.18,.45-2.18,1.38,0,.8,.77,1.36,2.31,1.72,1.14,.24,1.94,.41,2.37,.49,.82,.17,1.55,.41,2.2,.71,1.55,.71,2.33,1.85,2.33,3.43,0,1.85-.69,3.21-2.09,4.09-1.14,.71-2.69,1.08-4.66,1.08s-3.58-.37-4.78-1.1c-1.46-.88-2.18-2.26-2.18-4.12"/><path d="M130.74,14.75h.5c.24,0,.39-.04,.47-.11,.09-.06,.13-.17,.13-.28,0-.06-.02-.15-.06-.19-.04-.06-.11-.11-.17-.13-.07-.02-.22-.04-.41-.04h-.45v.75Zm-.41,1.4v-2.5h.86c.3,0,.5,.02,.62,.06,.13,.04,.24,.13,.32,.24,.09,.11,.11,.24,.11,.37,0,.17-.06,.34-.19,.47-.13,.13-.3,.22-.52,.24,.09,.04,.15,.09,.22,.13,.11,.11,.22,.26,.37,.49l.3,.5h-.5l-.21-.39c-.17-.3-.32-.49-.41-.58-.09-.06-.19-.09-.32-.09h-.24v1.06h-.41Zm1.01-3.23c-.32,0-.65,.09-.95,.26-.3,.17-.56,.41-.73,.71-.17,.3-.26,.65-.26,.97,0,.34,.09,.65,.26,.97,.17,.3,.41,.54,.71,.71,.3,.17,.62,.26,.97,.26s.65-.09,.97-.26c.3-.17,.54-.41,.71-.71,.17-.3,.26-.62,.26-.97s-.09-.67-.26-.97c-.17-.3-.41-.56-.73-.71-.3-.17-.6-.26-.95-.26m0-.39c.39,0,.78,.11,1.14,.3,.37,.19,.67,.5,.86,.86,.22,.37,.3,.75,.3,1.16s-.11,.78-.3,1.16c-.19,.37-.49,.65-.86,.86-.37,.19-.75,.3-1.16,.3s-.8-.11-1.16-.3c-.37-.19-.65-.5-.86-.86-.22-.37-.3-.75-.3-1.16s.11-.8,.3-1.16c.22-.37,.5-.67,.86-.86,.43-.19,.8-.3,1.19-.3"/></g></g></svg>