<?xml version="1.0" encoding="UTF-8"?><svg xmlns="http://www.w3.org/2000/svg" viewBox="0 0 160 35"><g id="a"/><g id="b"><g><polygon points="5.79 13.52 11.08 23.12 17.2 23.13 22.4 13.52 25 13.52 25 11.78 17.17 11.78 17.17 13.52 19.43 13.52 15.65 20.51 11.81 13.52 14.56 13.52 14.56 11.78 3.19 11.78 3.19 13.52 5.79 13.52"/><path d="M73.16,13.51v-1.74h10.48v1.74h-2.61v7.84h2.42c2.24,0,3.71-1.48,3.71-3.49h1.73v5.25h-15.74v-1.76h2.64v-7.84h-2.64Z"/><path d="M47.68,21.66c-1.92-.03-2.77-2.16-2.73-4.27,.04-2.19,1.08-4.09,2.88-4.06,1.8,.03,2.75,1.97,2.71,4.16-.04,2.06-.89,4.21-2.87,4.17m.06-10.12c-5.26,0-8.06,2.63-8.06,5.92s2.69,6,8.09,6,8.06-2.66,8.06-6-2.83-5.92-8.09-5.92"/><polygon points="106.77 13.52 112.06 23.12 118.18 23.13 123.38 13.52 125.98 13.52 125.98 11.78 118.15 11.78 118.15 13.52 120.41 13.52 116.63 20.51 112.79 13.52 115.54 13.52 115.54 11.78 104.17 11.78 104.17 13.52 106.77 13.52"/><path d="M148.66,21.66c-1.92-.03-2.77-2.16-2.73-4.27,.04-2.19,1.08-4.09,2.88-4.06,1.8,.03,2.75,1.97,2.71,4.16-.04,2.06-.89,4.21-2.87,4.17m.06-10.12c-5.26,0-8.06,2.63-8.06,5.92s2.69,6,8.09,6,8.06-2.66,8.06-6-2.83-5.92-8.09-5.92"/></g></g></svg>