<?xml version="1.0" encoding="UTF-8"?><svg xmlns="http://www.w3.org/2000/svg" viewBox="0 0 32 32"><defs><style>.c{fill:#57a57b;}</style></defs><g id="a"/><g id="b"><g><path class="c" d="M5.32,11.27C5.39,5.07,10.46,.68,15.99,.67c5.5-.01,10.63,4.36,10.71,10.65,3.09,.65,5.08,2.43,5.29,5.67,.19,2.9-1.32,4.87-3.97,6.04,0,.69-.02,1.41,0,2.13,.08,3.09-2.27,4.55-4.35,4.78-.53,.06-1.06,.07-1.62,.11-.04,.15-.08,.33-.15,.49-.21,.45-.55,.77-1.07,.78-1.91,0-3.82,.03-5.72-.02-1.02-.03-1.75-.92-1.75-1.98,0-1.02,.79-1.9,1.81-1.94,1.17-.04,2.35-.02,3.52-.02,.59,0,1.17,0,1.76,0,.97,0,1.37,.32,1.6,1.28,1.19,.09,2.33-.03,3.35-.74,.76-.53,1.2-1.25,1.26-2.17,.05-.84,.03-1.68,.02-2.52,0-.1-.09-.25-.18-.3-.82-.44-1.14-1.14-1.14-2.04,.02-1.59,0-3.18,0-4.76,0-1.79,.07-3.58-.06-5.36-.28-3.81-2.21-6.57-5.74-8.02-3.72-1.53-7.13-.77-10.06,1.95-1.74,1.61-2.71,3.68-2.77,6.06-.08,3.37-.05,6.75-.05,10.13,0,.61-.12,1.17-.56,1.62-.61,.63-1.36,.79-2.16,.48-2.2-.84-3.54-2.45-3.88-4.78-.38-2.66,.86-5.01,3.22-6.2,.62-.31,1.32-.48,2.03-.72Zm.02,1.46c-.15,.01-.21,0-.28,.02-1.99,.44-3.49,2.07-3.7,4.02-.23,2.11,.84,3.97,2.77,4.85,.79,.36,1.21,.1,1.21-.77,0-2.16,0-4.32,0-6.48,0-.54,0-1.08,0-1.64Zm21.35,0c0,.45,0,.88,0,1.3,0,2.35-.02,4.69,0,7.04,0,.58,.46,.86,1,.64,1.86-.78,2.89-2.18,2.99-4.19,.12-2.36-1.66-4.5-3.98-4.78Zm-6.04,15.95c-1.81,0-3.56,0-5.32,0-.3,0-.52,.17-.61,.48-.14,.5,.18,.85,.8,.85,1.63,0,3.25,0,4.88,0,.09,0,.17-.02,.26-.04v-1.3Z"/><path class="c" d="M16.83,22.67c-2.61,.01-4.14-.62-5.44-1.82-.17-.16-.32-.42-.32-.64,0-.19,.19-.5,.36-.55,.23-.06,.55,0,.77,.13,.5,.3,.93,.72,1.44,.99,1.94,.99,4.31,.65,5.94-.79,.04-.04,.08-.07,.12-.11,.4-.35,.82-.39,1.1-.1,.3,.32,.22,.73-.2,1.11-1.3,1.17-2.86,1.77-3.76,1.77Z"/><path class="c" d="M12.66,13.87c0,.56-.41,1-.96,1.01-.56,.01-1.03-.44-1.03-1,0-.54,.45-.99,.99-.99,.55,0,.99,.42,1,.98Z"/><path class="c" d="M19.36,13.85c.01-.55,.46-.98,1.01-.96,.55,.01,.98,.46,.97,1.01,0,.56-.47,1-1.04,.98-.54-.02-.95-.47-.94-1.03Z"/></g></g></svg>