<?xml version="1.0" encoding="UTF-8"?><svg xmlns="http://www.w3.org/2000/svg" viewBox="0 0 32 32"><defs><style>.c{fill:#57a57b;}</style></defs><g id="a"/><g id="b"><g><g><path d="M4.44,2.92c.17,1.34,.31,2.64,.51,3.93,.18,1.19,1.04,1.89,2.24,1.9,2.07,.01,15.51,0,21.62,0,.67,0,1.28,.12,1.54,.81,.13,.33,.19,.76,.09,1.09-.71,2.41-1.47,4.8-2.22,7.2-.24,.76-.73,1.07-1.64,1.07-3.46,0-8.89,0-8.89,0,0,0-5.31,0-8.67,0-.76,0-1.44,.17-1.95,.79-.58,.69-.7,1.47-.35,2.28,.34,.78,.97,1.21,1.83,1.29,.1,0,.2,.01,.31,.01,6.68,0,10.45,0,17.13,0,.38,0,.7-.06,.86-.45,.18-.45-.08-.91-.56-.97-.17-.02-.35-.01-.52-.01-6.5,0-10.1,0-16.6,0-.2,0-.41-.01-.6-.06-.38-.09-.55-.37-.54-.74,.02-.39,.27-.6,.64-.66,.16-.03,.32-.01,.48-.01,6.75,0,10.59,0,17.35,0,1.73,0,2.7-.72,3.22-2.37,.7-2.23,1.32-4.49,2.11-6.68,.73-2.03-.74-4.08-3-4.06-8.08,.06-13.24,.03-21.32,.03-.9,0-1.03-.1-1.15-.98-.15-1.09-.28-2.19-.41-3.29-.12-1.08-.64-1.56-1.71-1.56-1.11,0-2.21,0-3.32,0-.33,0-.61,.07-.79,.37-.31,.53,.04,1.09,.71,1.1,1.03,.02,2.07,0,3.1,0,.16,0,.32,0,.52,0Z"/><path d="M23.26,30.55c-1.6,0-2.87-1.29-2.88-2.89-.01-1.61,1.28-2.92,2.88-2.93,1.6,0,2.9,1.29,2.91,2.91,0,1.6-1.3,2.92-2.91,2.91Zm-1.45-2.92c0,.79,.67,1.47,1.46,1.47,.8,0,1.46-.68,1.45-1.48-.02-.8-.66-1.42-1.46-1.41-.79,0-1.45,.64-1.45,1.42Z"/><path d="M10.19,30.55c-1.58,.02-2.92-1.31-2.93-2.9,0-1.59,1.31-2.91,2.91-2.92,1.6,0,2.92,1.3,2.92,2.9,0,1.6-1.29,2.91-2.9,2.92Zm-.08-4.35c-.79,.02-1.41,.68-1.39,1.48,.02,.79,.69,1.42,1.47,1.41,.81-.01,1.44-.67,1.42-1.5-.02-.83-.66-1.42-1.51-1.4Z"/><path d="M5.84,11.19c.2,1.8,.41,3.69,.62,5.58,.05,.42,.39,.68,.79,.64,.42-.04,.69-.4,.64-.88-.08-.78-.17-1.56-.26-2.33-.11-.95-.21-1.9-.32-2.85-.01-.13-.03-.26-.05-.39-.09-.5-.41-.81-.78-.76-.45,.06-.68,.37-.65,.99Z"/></g><path class="c" d="M23.54,12.23h-.12l.3-.72c.13-.31-.13-.6-.54-.6-.33,0-.65,.19-.76,.46l-.36,.86h-1.39l.3-.72c.13-.31-.15-.6-.56-.6-.33,0-.63,.19-.74,.46l-.36,.86h-.7c-.06,0-.11,.02-.17,.03-.05-.01-.11-.03-.17-.03h-.12l.3-.72c.13-.31-.13-.6-.54-.6-.33,0-.65,.19-.76,.46l-.36,.86h-1.39l.3-.72c.13-.31-.15-.6-.56-.6-.33,0-.63,.19-.74,.46l-.36,.86h-.7c-.36,0-.66,.25-.66,.56s.3,.56,.66,.56h.23l-.52,1.28h-.58c-.36,0-.66,.25-.66,.56s.3,.56,.66,.56h.11l-.31,.75c-.14,.35,.16,.6,.56,.6,.37,0,.65-.23,.74-.46l.37-.89h1.39l-.31,.75c-.13,.32,.15,.6,.56,.6,.33,0,.64-.2,.74-.46l.37-.89h.7c.06,0,.12-.02,.17-.03,.06,.01,.11,.03,.17,.03h.11l-.31,.75c-.14,.35,.16,.6,.56,.6,.37,0,.65-.23,.74-.46l.37-.89h1.39l-.31,.75c-.13,.32,.15,.6,.56,.6,.33,0,.64-.2,.74-.46l.37-.89h.7c.36,0,.66-.25,.66-.56s-.3-.56-.66-.56h-.23l.52-1.28h.59c.36,0,.66-.25,.66-.56s-.3-.56-.66-.56Zm-7.72,2.39h-1.39l.53-1.28h1.39l-.52,1.28Zm2.51,0h-.58c-.06,0-.12,.02-.17,.03-.06-.01-.11-.03-.17-.03h-.23l.52-1.28h.59c.06,0,.11-.02,.17-.03,.05,.01,.11,.03,.17,.03h.23l-.52,1.28Zm2.75,0h-1.39l.53-1.28h1.39l-.52,1.28Z"/></g></g></svg>