<?xml version="1.0" encoding="UTF-8"?><svg xmlns="http://www.w3.org/2000/svg" viewBox="0 0 32 32"><defs><style>.c{fill:#fff;}.d{fill:#57a57b;}</style></defs><g id="a"/><g id="b"><g><path class="c" d="M9.94,14.29c2.36,2.82,4.92,5.36,7.84,7.83,.09-.17,.16-.36,.28-.49,1.49-1.48,3.44-1.48,4.93,0,.99,.98,2.01,1.95,2.94,2.99,1.03,1.13,1.03,3.01,0,4.14-.79,.86-1.58,1.77-2.53,2.42-1.67,1.15-3.48,1.08-5.17-.04-4.39-2.91-8.35-6.31-11.86-10.23-2.01-2.24-3.83-4.61-5.51-7.09-1.27-1.87-1.14-4.13,.37-5.81,.57-.63,1.17-1.24,1.81-1.81,1.37-1.22,3.14-1.23,4.48,0,1.04,.95,2.05,1.95,3,2.99,1.29,1.4,1.21,3.29-.11,4.67-.14,.14-.29,.27-.47,.44Zm10.93,16.33c.8-.02,1.53-.25,2.12-.79,.59-.54,1.16-1.1,1.72-1.67,.87-.88,.88-2.02,.02-2.91-.91-.94-1.83-1.86-2.77-2.77-.85-.82-2.01-.81-2.87,0-.29,.27-.56,.57-.86,.84-.37,.35-.66,.36-1.06,.03-3.13-2.59-6-5.43-8.59-8.56-.3-.36-.3-.69,.02-1.03,.25-.27,.53-.53,.79-.79,.84-.85,.94-2,.17-2.82-.95-1.02-1.94-2.01-2.96-2.97-.8-.75-1.91-.73-2.71,0-.61,.56-1.2,1.14-1.74,1.76-1.03,1.17-1.15,2.79-.24,4.05,1.4,1.93,2.78,3.88,4.3,5.7,3.67,4.41,7.96,8.14,12.72,11.34,.58,.39,1.21,.6,1.92,.59Z"/><path class="d" d="M31.97,15.2c0,.21,.03,.43,.03,.64,0,.48-.22,.76-.61,.78-.42,.03-.68-.22-.73-.72-.06-.69-.07-1.38-.18-2.07-.51-3.47-2.06-6.41-4.68-8.75-2.71-2.42-5.9-3.65-9.53-3.74-.12,0-.24-.01-.36-.04-.4-.09-.61-.38-.56-.74,.05-.34,.32-.6,.7-.56,1.15,.11,2.32,.15,3.44,.41,5.04,1.16,8.69,4.11,10.96,8.75,.78,1.58,1.39,3.62,1.5,6.04Z"/><path class="d" d="M16.46,5.34c3.29,.22,6,1.56,8.01,4.19,1.42,1.85,2.14,3.96,2.18,6.29,0,.57-.29,.88-.78,.8-.36-.06-.49-.32-.53-.65-.09-.75-.13-1.51-.31-2.25-.93-3.9-4.39-6.79-8.4-7.03-.21-.01-.43-.03-.64-.05-.42-.04-.66-.3-.64-.71,.02-.35,.27-.58,.67-.59,.15,0,.29,0,.44,0Z"/><path class="d" d="M21.3,15.61c.05,.63-.11,.94-.52,1-.46,.07-.76-.2-.78-.72-.03-.66-.16-1.3-.51-1.86-.76-1.26-1.86-1.97-3.36-2.05-.56-.03-.85-.33-.77-.78,.06-.37,.34-.58,.8-.56,1.8,.07,3.22,.86,4.24,2.33,.63,.9,.8,1.5,.9,2.64Z"/></g></g></svg>