<?xml version="1.0" encoding="UTF-8"?><svg xmlns="http://www.w3.org/2000/svg" viewBox="0 0 32 32"><defs><style>.c{fill:#fff;}.d{fill:#57a57b;}</style></defs><g id="a"/><g id="b"><g><path class="c" d="M16.01,30.5c-3.64,0-7.28,0-10.92,0-.94,0-1.2-.27-1.16-1.22,.21-5.89,4.65-10.8,10.47-11.54,3.92-.49,7.34,.66,10.14,3.43,2.31,2.28,3.45,5.12,3.53,8.37,.02,.66-.32,.96-1.04,.96-2.98,0-5.96,0-8.94,0-.69,0-1.39,0-2.08,0Zm10.4-1.66c-.43-5.4-4.93-9.71-10.55-9.61-6.01,.1-9.99,4.87-10.27,9.61H26.42Z"/><path class="c" d="M15.98,16.79c-4.22,0-7.62-3.4-7.63-7.6,0-4.26,3.42-7.69,7.66-7.68,4.21,0,7.64,3.46,7.63,7.67-.02,4.25-3.41,7.62-7.66,7.62Zm6.05-7.63c0-3.37-2.68-6.03-6.05-6.03-3.35,0-6.02,2.65-6.03,6-.01,3.33,2.67,6.05,6.02,6.08,3.29,.03,6.06-2.74,6.05-6.05Z"/></g><path class="d" d="M11.55,9.69c-.51,0-.92-.41-.92-.92s.41-.92,.92-.92c4.41,0,6.51-1.76,7.05-2.3,.36-.36,.95-.36,1.31,0s.36,.95,0,1.31c-.85,.85-3.37,2.84-8.35,2.84Z"/></g></svg>