<svg version="1.1" id="logo" xmlns="http://www.w3.org/2000/svg" xmlns:xlink="http://www.w3.org/1999/xlink" x="0px" y="0px"
	  viewBox="0 0 500 55" enable-background="new 0 0 500 55" xml:space="preserve">
<g>
	<path fill="#222222" d="M78.341,2.806C64.692,2.772,53.614,13.784,53.564,27.443c-0.015,4.93,1.425,9.546,3.955,13.423
		l17.669-17.345L63.829,23.51l0.027-8.717l27.051-0.009l0.122,26.258l-9.222-0.019l0.164-10.27L64.583,48.039
		c3.898,2.613,8.574,4.15,13.636,4.155c13.646,0.024,24.731-11.001,24.726-24.641C102.992,13.919,91.985,2.829,78.341,2.806z"/>
	<path fill="#222222" d="M24.906,2.81C11.257,2.77,0.175,13.804,0.174,27.442c-0.013,4.936,1.429,9.551,3.91,13.428l17.671-17.335
		l-11.311-0.008l-0.02-8.717l27.045-0.039l0.124,26.274l-9.169-0.022l0.12-10.258L11.15,48.056c3.894,2.609,8.621,4.13,13.634,4.135
		c13.645,0.028,24.725-10.989,24.772-24.631C49.606,13.929,38.551,2.838,24.906,2.81z"/>
	<path fill="#222222" d="M277.256,15.071c0.4-1.951,1.836-3.604,3.834-3.6c2.286,0.002,2.758,1.864,2.351,3.874l-0.434,1.923
		l12.579,0.023c1.696-7.958,0.859-14.667-12.664-14.66c-5.236-0.009-8.926,1.324-11.548,2.935c-3.535,2.197-6.315,5.82-7.73,12.45
		c-1.504,7.1,0.323,9.703,6.809,13.322c2.146,1.205,4.364,2.15,5.933,3.156c1.534,1.002,2.529,1.67,1.888,4.734
		c-0.464,2.09-1.713,4.215-4.187,4.232c-2.363-0.004-2.941-1.883-2.436-4.229l0.464-2.201l-12.988-0.018l-0.28,1.279
		c-2.248,10.498,2.635,13.994,12.869,13.994c12.401,0.014,18.504-4.406,20.858-15.52C296.211,19.706,275.217,24.574,277.256,15.071z
		"/>
	<path fill="#222222" d="M402.362,15.147c0.399-1.934,1.84-3.608,3.838-3.606c2.278,0.004,2.754,1.878,2.333,3.882l-0.421,1.925
		l12.58,0.017c1.7-7.952,0.854-14.658-12.66-14.679c-5.236-0.004-8.934,1.345-11.556,2.962c-3.532,2.208-6.324,5.803-7.731,12.452
		c-1.513,7.081,0.327,9.682,6.8,13.305c2.143,1.211,4.365,2.146,5.95,3.16c1.526,1.002,2.521,1.682,1.87,4.75
		c-0.441,2.078-1.695,4.221-4.178,4.221c-2.35-0.008-2.949-1.887-2.452-4.229l0.472-2.219l-12.979,0.008l-0.276,1.271
		c-2.252,10.514,2.64,13.996,12.882,14c12.393,0.012,18.479-4.408,20.842-15.514C421.313,19.784,400.318,24.652,402.362,15.147z"/>
	<path fill="#222222" d="M494.468,41.994l-2.584,0.021l-1.373,6.609h1.641l0.544-2.572h0.226l0.981,2.555l1.84-0.004l-1.028-2.631
		c0.981-0.162,1.798-0.629,2.062-1.912C497.115,42.449,496.138,41.994,494.468,41.994z M495.122,44.051
		c-0.077,0.393-0.365,0.664-0.978,0.664l-1.164,0.004l0.275-1.373l1.055,0.004C495.016,43.35,495.22,43.596,495.122,44.051z"/>
	<path fill="#222222" d="M494.981,38.93c-3.536,0.004-6.995,2.877-7.73,6.414c-0.739,3.523,1.513,6.383,5.058,6.365
		c3.527-0.008,6.982-2.889,7.727-6.408C500.771,41.766,498.509,38.922,494.981,38.93z M497.97,45.305
		c-0.608,2.865-2.839,4.535-5.278,4.539c-2.457,0.014-3.975-1.645-3.379-4.518c0.607-2.869,2.826-4.547,5.273-4.547
		C497.039,40.779,498.556,42.449,497.97,45.305z"/>
	<polygon fill="#222222" points="481.662,28.39 479.278,28.403 477.544,33.016 483.362,33.012 483.809,31.807 480.379,31.828 	"/>
	<polygon fill="#222222" points="487.744,32.99 489.023,29.559 491.174,29.547 491.633,28.367 484.943,28.381 484.493,29.58 
		486.644,29.561 485.352,33.002 	"/>
	<path fill="#222222" d="M494.889,32.967c2.689-0.008,4.339-1.053,4.5-2.592c0.188-1.502-1.594-2.032-3.013-2.019l-3.57,0.005
		l-1.747,4.625L494.889,32.967z M494.752,29.537l0.884-0.006c0.8-0.006,1.395,0.158,1.382,0.85
		c-0.013,0.438-0.399,1.402-1.959,1.402l-1.156,0.002L494.752,29.537z"/>
	<path fill="#222222" d="M333.475,9.818c-1.143-3.343-3.923-5.438-8.428-5.99h-21.556l-10.106,47.444h21.148
		c12.473-1.049,15.584-13.777,17.713-23.78C334.673,16.112,334.754,13.575,333.475,9.818z M319.93,20.526l-2.966,13.912
		c-0.761,3.625-2.07,7.303-5.428,7.289L308.8,41.73l6.064-28.523l1.934,0.006C320.95,13.218,320.963,15.687,319.93,20.526z"/>
	<polygon fill="#222222" points="341.244,3.828 331.116,51.271 344.512,51.271 354.623,3.828 	"/>
	<polygon fill="#222222" points="370.288,14.453 385.689,14.472 387.972,3.828 359.195,3.828 349.068,51.271 378.465,51.271 
		380.73,40.58 364.746,40.566 366.51,32.266 380.9,32.281 383.136,21.834 368.745,21.831 	"/>
	<polygon fill="#222222" points="450.318,32.303 452.537,21.879 438.146,21.871 439.707,14.497 455.1,14.506 457.391,3.828 
		428.618,3.828 418.491,51.271 447.884,51.271 450.145,40.605 434.156,40.6 435.92,32.291 	"/>
	<polygon fill="#222222" points="475.466,3.828 462.078,3.828 451.968,51.271 479.941,51.271 482.206,40.625 467.62,40.625 	"/>
	<path fill="#222222" d="M174.858,49.219c-0.198-0.67,0.021-2.949,0.578-5.627l0.867-3.943c0.584-2.818,1.203-6.027,0.446-8.174
		c-0.784-2.275-2.903-3.605-5.525-3.822l0.032-0.127c4.817-0.648,8.789-3.876,10.394-11.502c1.443-6.779-0.534-11.054-6.834-12.195
		h-23.83l-10.1,47.444h13.383l4.01-18.799l2.478,0.002c2.325,0,3.498,0.734,2.65,4.814c-0.495,2.352-0.812,4.756-1.311,7.107
		c-0.501,2.324-1.109,5.775-0.457,6.875h14.193l0.11-0.641C175.406,50.363,175.043,49.891,174.858,49.219z M167.854,18.022
		c-0.984,4.613-3.564,5.623-5.776,5.619l-1.938-0.006l2.246-10.498l1.558,0.008C166.94,13.15,168.674,14.063,167.854,18.022z"/>
	<path fill="#222222" d="M197.586,3.828l-21.375,47.444h13.813l2.886-7.262l8.942,0.012l-0.068,7.25h13.779l-1.024-47.444H197.586z
		 M202.606,33.563l-6.095,0.008l7.28-19.606h0.124L202.606,33.563z"/>
	<polygon fill="#222222" points="148.638,3.828 117.043,3.828 114.714,14.701 123.843,14.709 116.036,51.256 129.432,51.271 
		137.205,14.718 146.334,14.733 	"/>
	<polygon fill="#222222" points="249.521,3.828 243.365,32.717 243.233,32.717 242.653,3.828 228.029,3.828 217.925,51.271 
		230.116,51.271 236.363,21.881 236.516,21.879 237.668,51.271 251.992,51.271 262.131,3.828 	"/>
</g>
</svg>
