<?xml version="1.0" encoding="UTF-8"?>
<svg id="Layer_2" data-name="Layer 2" xmlns="http://www.w3.org/2000/svg" viewBox="0 0 321.69 75.05">
  <defs>
    <style>
      .cls-1 {
        fill: #005092;
      }

      .cls-2 {
        fill: #e42313;
      }

      .cls-3 {
        fill-rule: evenodd;
      }

      .cls-4 {
        fill: #ffd300;
      }

      .cls-5 {
        fill: #fff;
      }
    </style>
  </defs>
  <g id="Layer_1-2" data-name="Layer 1">
    <g>
      <path class="cls-5" d="M12.79,57.82l1.97,15.27h20.61l1.12.78c1.15.78,2.52,1.18,3.91,1.17,1.34.03,2.67-.32,3.82-1.02l1.36-.93h20.47l1.92-15.27,12.02-8.83c.63-2.56.93-5.19.89-7.83C80.87,17.41,62.38,0,40.44,0S0,18.43,0,41.16c0,2.67.32,5.33.97,7.92l11.82,8.72"/>
      <path class="cls-4" d="M2.18,48.29c-.61-2.5-.88-5.07-.8-7.64C.94,19.08,18.08,1.23,39.66.8c21.58-.43,39.42,16.7,39.85,38.28,0,.06,0,.11,0,.17v1.41c.08,2.57-.19,5.14-.8,7.64l-12.04,8.77-1.82,14.65h-19.83l-1.27.94c-.97.68-2.14,1.03-3.32,1.02-1.28-.03-2.52-.47-3.53-1.27l-1.02-.69H15.96l-1.87-14.65-11.91-8.78"/>
      <path class="cls-2" d="M2.18,48.29c-.61-2.5-.88-5.07-.8-7.64C.94,19.08,18.08,1.23,39.66.8c21.58-.43,39.42,16.7,39.85,38.28,0,.06,0,.11,0,.17v1.41c.08,2.57-.19,5.14-.8,7.64l-12.04,8.77-1.82,14.65h-19.83l-1.27.94c-.97.68-2.14,1.03-3.32,1.02-1.28-.04-2.52-.48-3.53-1.27l-1.02-.69H15.95l-1.86-14.65-11.91-8.78M36.54,64.84l1.68,1.27c.64.5,1.42.8,2.23.87.81-.06,1.59-.37,2.23-.87l1.68-1.27h14.56l1.51-12.03,11.57-8.46c.4-1.31.58-2.68.53-4.05-.02-2.23-.49-4.43-1.36-6.48v-.08l-20.98,21.15,20.16-24.87c-.68-3.3-2.38-6.31-4.86-8.59l-.1-.1-18.14,31.48,15.96-34.37-.09-.11c-2.02-2.79-4.88-4.86-8.16-5.91l-11.12,39.11,8.02-40.73c-2.5-1.39-5.32-2.11-8.18-2.1-.6-.01-1.21.03-1.81.11l-1.49,42.37-1.96-42.33c-.57-.07-1.14-.1-1.72-.09-2.81,0-5.57.73-8.01,2.13l-.17.09,8.49,40.65L25.88,12.52c-3.34,1.04-6.25,3.13-8.29,5.97l16.11,34.37L15.67,21.04c-2.66,2.29-4.53,5.37-5.33,8.8l20.28,25.13-21-21.24v.09c-.94,2.11-1.42,4.41-1.4,6.72,0,1.38.18,2.76.53,4.1l11.86,8.63,1.46,11.71,14.47-.13Z"/>
      <path class="cls-3" d="M142.28,36h-.14s-.01-.09,0-.14v-.13c.08-.07.2-.07.28,0,.01.04.01.09,0,.13.01.05.01.09,0,.14h-.14"/>
      <path class="cls-1" d="M132.62,40.39c-.95-.81-2.15-1.26-3.4-1.27-.94,0-2.2.56-2.2,1.65s1.39,1.59,2.28,1.88l1.27.39c2.74.81,4.86,2.2,4.86,5.38.15,1.99-.6,3.94-2.04,5.32-1.59,1.25-3.57,1.91-5.6,1.86-2.49-.03-4.91-.81-6.94-2.25l2.19-4.14c1.22,1.21,2.84,1.93,4.56,2.04,1.27,0,2.55-.6,2.55-1.99s-2.02-1.93-3.12-2.25c-3.22-.92-5.35-1.74-5.35-5.57-.15-3.51,2.57-6.48,6.09-6.63,0,0,0,0,.01,0,.24-.01.48-.01.71,0,2.16.04,4.28.6,6.17,1.63l-2.05,3.95Z"/>
      <path class="cls-1" d="M141.98,33.32v10.03h0c.98-1.39,2.59-2.18,4.29-2.1,3.41,0,5.09,2.25,5.09,5.65v8.22h-4.76v-6.96c0-1.58-.23-3.19-2.15-3.19s-2.55,1.62-2.55,3.19v6.89h-4.76v-21.73h4.84Z"/>
      <path class="cls-1" d="M167.59,49.13h-10.02c-.18,1.46.85,2.79,2.3,2.98.22.03.45.03.67,0,.95.07,1.84-.43,2.28-1.27h4.61c-.76,3.16-3.82,4.61-6.83,4.61-4.44,0-7.76-2.55-7.76-7.15s3.05-7.17,7.43-7.17c4.66,0,7.34,2.88,7.34,7.46l-.03.55ZM163.17,46.34c-.39-1.52-1.94-2.45-3.46-2.06-1.01.26-1.8,1.05-2.06,2.06h5.52Z"/>
      <rect class="cls-1" x="169.11" y="33.32" width="4.76" height="21.73"/>
      <rect class="cls-1" x="176.36" y="33.32" width="4.76" height="21.73"/>
      <polygon class="cls-1" points="197.17 50.7 203.31 50.7 203.31 55.05 192.04 55.05 192.04 35.31 197.17 35.31 197.17 50.7"/>
      <path class="cls-1" d="M208.91,41.62v7.17c0,1.71.42,2.9,2.39,2.9s2.38-1.2,2.38-2.9v-7.17h4.76v8.1c0,4.43-3.12,5.79-7.14,5.79s-7.15-1.36-7.15-5.79v-8.1h4.76Z"/>
      <path class="cls-1" d="M220.68,33.32h4.76v9.61c1.07-1.15,2.59-1.79,4.16-1.76,3.95.29,6.93,3.73,6.64,7.68-.26,3.55-3.08,6.38-6.64,6.64-1.61.09-3.16-.65-4.11-1.96h0v1.5h-4.76l-.05-21.71ZM225.28,48.34c-.11,1.69,1.17,3.15,2.86,3.26s3.15-1.17,3.26-2.86c.11-1.69-1.17-3.15-2.86-3.26-.13,0-.26,0-.39,0-1.54.1-2.76,1.33-2.86,2.86"/>
      <path class="cls-1" d="M242.78,43.8h.06c.87-1.56,2.56-2.48,4.34-2.38h.92v4.58c-.62-.33-1.32-.49-2.02-.45-2.63,0-3.3,1.76-3.3,4.06v5.42h-4.76v-13.42h4.76v2.18Z"/>
      <path class="cls-1" d="M254.28,36.47c0,1.48-1.2,2.67-2.67,2.67-1.48,0-2.67-1.2-2.67-2.67s1.2-2.67,2.67-2.67c1.48,0,2.67,1.2,2.67,2.67h0M253.98,55.05h-4.77v-13.43h4.77v13.43Z"/>
      <path class="cls-1" d="M266.17,45.99c-.7-.57-1.57-.9-2.47-.94-1.78-.02-3.24,1.39-3.27,3.17v.1c-.06,1.76,1.31,3.23,3.06,3.3,0,0,0,0,0,0h.28c.88,0,1.73-.33,2.39-.92v4.03c-1.05.51-2.2.77-3.36.76-3.9.12-7.16-2.94-7.28-6.84,0,0,0-.01,0-.02,0-.06,0-.13,0-.19-.06-3.97,3.11-7.24,7.08-7.32h.43c1.1,0,2.18.26,3.14.79v4.07Z"/>
      <path class="cls-1" d="M283.02,55.05h-4.76v-1.51h0c-.94,1.29-2.47,2.02-4.06,1.95-3.82-.07-6.85-3.22-6.78-7.04,0,0,0,0,0,0v-.14c-.17-3.77,2.76-6.97,6.53-7.14h.2c1.58-.04,3.09.6,4.16,1.76v-1.27h4.76l-.05,13.4ZM272.29,48.34c-.11,1.69,1.17,3.15,2.86,3.26s3.15-1.17,3.26-2.86c.11-1.69-1.17-3.15-2.86-3.26-.13,0-.26,0-.39,0-1.54.1-2.76,1.33-2.86,2.86"/>
      <path class="cls-1" d="M290.16,43.35h0c.94-1.44,2.59-2.24,4.3-2.1,3.61,0,5.09,2.28,5.09,5.57v8.3h-4.77v-6.62c0-1.27.22-3.53-2.14-3.53-1.93,0-2.55,1.44-2.55,3.12v6.9h-4.76v-13.38h4.76l.06,1.73Z"/>
      <polygon class="cls-1" points="307.25 55.05 302.49 55.05 302.49 45.54 300.95 45.54 300.95 41.62 302.49 41.62 302.49 37.59 307.25 37.59 307.25 41.62 309.95 41.62 309.95 45.54 307.25 45.54 307.25 55.05"/>
      <path class="cls-1" d="M319.69,45.07c-.79-.41-1.66-.63-2.55-.65-.56,0-1.5.23-1.5.92,0,.92,1.5,1.04,2.15,1.17,2.23.45,3.89,1.49,3.89,3.98,0,3.53-3.22,5-6.36,5-1.88-.02-3.72-.54-5.33-1.51l1.73-3.32c1.13.79,2.45,1.26,3.82,1.36.6,0,1.49-.29,1.49-1.02,0-1.04-1.49-1.11-2.98-1.49-1.84-.15-3.22-1.74-3.11-3.58,0-3.3,2.99-4.76,5.92-4.76,1.52-.04,3.03.25,4.42.87l-1.59,3.03Z"/>
    </g>
  </g>
</svg>