<?xml version="1.0" encoding="utf-8"?>
<!-- Generator: Adobe Illustrator 26.2.1, SVG Export Plug-In . SVG Version: 6.00 Build 0)  -->
<svg version="1.1" id="Layer_1" xmlns="http://www.w3.org/2000/svg" xmlns:xlink="http://www.w3.org/1999/xlink" x="0px" y="0px"
	 viewBox="0 0 1370 190" style="enable-background:new 0 0 1370 190;" xml:space="preserve">
<style type="text/css">
	.st0{fill:#57A67B;}
	.st1{enable-background:new    ;}
</style>
<path class="st0" d="M109.7,100L78.3,47.2h52.3l31.5,52.9L130.6,153H78.3L109.7,100z M57.1,11.9L4.7,100l52.4,88.1H162l52.4-88.1
	L162,11.9L57.1,11.9z"/>
<path d="M289.8,152.9V79.5h-40.2V47.2h127.3v32.3h-40.2v73.4L289.8,152.9z M617.7,47.2l-30.5,30.1l-29.6-30.1h-49L559,97.7
	l-50.5,55.2h49.2l30.1-34.2l30,34.2h50L616,97.1l51.6-49.9H617.7z M528.7,100.1c0,16.9-7.6,30-18.8,39.1s-27.2,13.7-47.9,13.7h-76.2
	V47.2h76.1c20.8,0,36.7,4.6,47.9,13.7C521.1,70,528.7,83.1,528.7,100.1L528.7,100.1z M484.9,100.1c0-6.6-3-12.8-8.2-16.9
	c-4.7-3.9-11.5-5.9-20.1-5.9h-26v45.5h26c8.7,0,15.4-2,20.1-5.9C481.9,112.8,484.9,106.6,484.9,100.1L484.9,100.1z"/>
<g class="st1">
	<path class="st0" d="M787.4,47.2h5.8l-10.1,41h-11.3l-8.1-40.8l-8.1,40.8h-11.3l-10.1-41h5.8L750,88l8.1-40.8h11.2l8.1,40.8
		L787.4,47.2z"/>
</g>
<g class="st1">
	<path class="st0" d="M794.8,73.7c0-9,5.5-15.1,14.1-15.1s14,6.1,14,15.1s-5.5,15.1-14,15.1S794.8,82.7,794.8,73.7z M817.5,73.7
		c0-6.8-3.1-11.2-8.6-11.2s-8.7,4.4-8.7,11.2s3.2,11.2,8.7,11.2S817.5,80.5,817.5,73.7z"/>
	<path class="st0" d="M834.8,65.5c1.3-4,4.2-6.8,9.5-6.8v5.2h-1.6c-5.3,0-7.9,1.7-7.9,6.9v17.4h-5.3V59.3h5.3V65.5z"/>
	<path class="st0" d="M849.6,88.2v-41h5.3v41H849.6z"/>
	<path class="st0" d="M884.1,47.2h5.3v41h-5.3v-6.3c-1.8,4.2-5.9,6.9-10.2,6.9c-7,0-12.3-6.2-12.3-15.1s5.3-15.1,12.3-15.1
		c5.4,0,8.9,3.7,10.2,7.6V47.2z M884.3,73.7c0-6.8-3.2-11.2-8.7-11.2s-8.6,4.4-8.6,11.2s3.1,11.2,8.6,11.2S884.3,80.5,884.3,73.7z"
		/>
	<path class="st0" d="M897.2,75.1v-4.4h17.1v4.4H897.2z"/>
	<path class="st0" d="M920.3,73.7c0-9,5.5-15.1,14.1-15.1c7.1,0,11.8,4.3,13.1,10.4h-5.4c-0.8-3.6-3.3-6.5-7.7-6.5
		c-5.5,0-8.7,4.4-8.7,11.2s3.2,11.2,8.7,11.2c4.2,0,6.8-2.3,8-6.4h5.4c-1.5,6.6-6.8,10.3-13.4,10.3
		C925.8,88.8,920.3,82.7,920.3,73.7z"/>
	<path class="st0" d="M953.7,88.2v-41h5.3v41H953.7z"/>
	<path class="st0" d="M990.8,69.6v0.1v18.5h-5.3v-5.9c-2,4.1-4.4,6.5-10,6.5c-5.4,0-9.7-3.9-9.7-9.3c0-6.8,6.8-8,11.9-8.6l7.8-0.8
		v-0.5v-0.1c0-3.8-2.1-7-6.7-7c-4,0-6.3,2.5-6.7,5.2h-5.4c0.6-5.5,5.3-9.1,12.1-9.1C987.7,58.7,990.8,64.2,990.8,69.6z M985.6,75.9
		v-2.2l-5.8,0.6c-4,0.4-8.5,1-8.5,5.2c0,3.7,2.9,5.8,6.3,5.8C982.9,85.3,985.6,81.1,985.6,75.9z"/>
	<path class="st0" d="M996.7,79.7h5.4c0.8,4.1,3.9,5.2,6.9,5.2c4.5,0,6.9-1.7,6.9-4.4c0-2.6-1.5-3.8-5.8-4.8l-4-0.9
		c-5-1.1-8.5-3.3-8.5-7.8c0-5.1,5.1-8.5,11.4-8.5c5.6,0,10.4,2.6,11.7,7.8h-5.4c-0.8-2.5-3.5-3.9-6.3-3.9c-3.1,0-6.2,1.5-6.2,4
		c0,2.3,1.9,3.1,5.8,3.9l4,0.9c6,1.3,8.5,4,8.5,8.5c0,5.6-5,8.9-12.1,8.9C1002.6,88.8,997.5,85.7,996.7,79.7z"/>
	<path class="st0" d="M1025.4,79.7h5.4c0.8,4.1,3.9,5.2,6.9,5.2c4.5,0,6.9-1.7,6.9-4.4c0-2.6-1.5-3.8-5.8-4.8l-4-0.9
		c-5-1.1-8.5-3.3-8.5-7.8c0-5.1,5.1-8.5,11.4-8.5c5.6,0,10.4,2.6,11.7,7.8h-5.4c-0.8-2.5-3.5-3.9-6.3-3.9c-3.1,0-6.2,1.5-6.2,4
		c0,2.3,1.9,3.1,5.8,3.9l4,0.9c6,1.3,8.5,4,8.5,8.5c0,5.6-5,8.9-12.1,8.9C1031.2,88.8,1026.2,85.7,1025.4,79.7z"/>
</g>
<g class="st1">
	<path class="st0" d="M1095.1,75.3h-21.8c0.4,6.3,3.6,9.6,8.4,9.6c4.2,0,6.4-1.9,7.5-5.2h5.4c-1.7,6.2-6.4,9.1-12.9,9.1
		c-8.7,0-13.8-6.4-13.8-15.1c0-8.8,5.1-15.1,13.7-15.1c8.1,0,13.6,5.7,13.6,14.6C1095.2,73.8,1095.2,74.6,1095.1,75.3z M1073.3,71.3
		h16.5c-0.3-5.2-3.5-8.7-8.2-8.7C1077,62.5,1074,65.5,1073.3,71.3z"/>
</g>
<g class="st1">
	<path class="st0" d="M1125.7,88.2h-5.7l-8.8-12l-8.8,12h-5.7l11.4-15.6l-10.3-13.4h5.7l7.7,10l7.7-10h5.7l-10.3,13.4L1125.7,88.2z"
		/>
	<path class="st0" d="M1158.1,73.7c0,8.9-5.3,15.1-12.3,15.1c-4.3,0-8.4-2.8-10.2-6.9v16.9h-5.3V59.3h5.3v7
		c1.3-3.9,4.8-7.6,10.2-7.6C1152.7,58.7,1158.1,64.8,1158.1,73.7z M1152.7,73.7c0-6.8-3.1-11.2-8.6-11.2c-5.5,0-8.7,4.4-8.7,11.2
		s3.2,11.2,8.7,11.2C1149.5,84.9,1152.7,80.5,1152.7,73.7z"/>
	<path class="st0" d="M1190.2,75.3h-21.9c0.4,6.3,3.6,9.6,8.4,9.6c4.2,0,6.4-1.9,7.5-5.2h5.4c-1.7,6.2-6.4,9.1-12.9,9.1
		c-8.7,0-13.8-6.4-13.8-15.1c0-8.8,5.1-15.1,13.7-15.1c8.1,0,13.6,5.7,13.6,14.6C1190.3,73.8,1190.2,74.6,1190.2,75.3z M1168.3,71.3
		h16.5c-0.3-5.2-3.5-8.7-8.2-8.7C1172.1,62.5,1169,65.5,1168.3,71.3z"/>
	<path class="st0" d="M1202.1,65.5c1.3-4,4.2-6.8,9.5-6.8v5.2h-1.6c-5.3,0-7.9,1.7-7.9,6.9v17.4h-5.3V59.3h5.3V65.5z"/>
	<path class="st0" d="M1216.8,54.3v-7.1h5.7v7.1H1216.8z M1217,88.2V59.3h5.3v28.9H1217z"/>
	<path class="st0" d="M1256.1,75.3h-21.8c0.4,6.3,3.6,9.6,8.4,9.6c4.2,0,6.4-1.9,7.5-5.2h5.4c-1.7,6.2-6.4,9.1-12.9,9.1
		c-8.7,0-13.8-6.4-13.8-15.1c0-8.8,5.1-15.1,13.7-15.1c8.1,0,13.6,5.7,13.6,14.6C1256.3,73.8,1256.2,74.6,1256.1,75.3z M1234.3,71.3
		h16.5c-0.3-5.2-3.5-8.7-8.2-8.7C1238.1,62.5,1235,65.5,1234.3,71.3z"/>
	<path class="st0" d="M1287.2,70.2v0.1v17.9h-5.3V71.1V71c0-5.9-2.7-8.4-6.9-8.4c-4.2,0-6.9,2.6-6.9,8.5v17.1h-5.3V59.3h5.3v5.9
		c1.3-3.4,4.1-6.5,9.1-6.5C1283.7,58.7,1287.2,63.7,1287.2,70.2z"/>
	<path class="st0" d="M1293.5,73.7c0-9,5.5-15.1,14.1-15.1c7.1,0,11.8,4.3,13.1,10.4h-5.4c-0.8-3.6-3.3-6.5-7.7-6.5
		c-5.5,0-8.7,4.4-8.7,11.2s3.2,11.2,8.7,11.2c4.2,0,6.8-2.3,8-6.4h5.4c-1.5,6.6-6.8,10.3-13.4,10.3
		C1299,88.8,1293.5,82.7,1293.5,73.7z"/>
	<path class="st0" d="M1352.4,75.3h-21.9c0.4,6.3,3.6,9.6,8.4,9.6c4.2,0,6.4-1.9,7.5-5.2h5.4c-1.7,6.2-6.4,9.1-12.9,9.1
		c-8.7,0-13.8-6.4-13.8-15.1c0-8.8,5.1-15.1,13.7-15.1c8.1,0,13.6,5.7,13.6,14.6C1352.5,73.8,1352.5,74.6,1352.4,75.3z M1330.6,71.3
		h16.5c-0.3-5.2-3.5-8.7-8.2-8.7C1334.3,62.5,1331.3,65.5,1330.6,71.3z"/>
</g>
<g class="st1">
	<path class="st0" d="M1359,88.2v-6.5h6.4v6.5H1359z"/>
</g>
<g class="st1">
	<path class="st0" d="M743.7,148h18.8v4.9h-24.2v-41h5.5L743.7,148L743.7,148z"/>
</g>
<g class="st1">
	<path class="st0" d="M765.1,138.4c0-9,5.5-15.1,14.1-15.1s14,6.1,14,15.1s-5.5,15.1-14,15.1C770.6,153.5,765.1,147.4,765.1,138.4z
		 M787.8,138.4c0-6.8-3.1-11.2-8.6-11.2s-8.7,4.4-8.7,11.2s3.2,11.2,8.7,11.2S787.8,145.2,787.8,138.4z"/>
	<path class="st0" d="M798,138.4c0-9,5.5-15.1,14.1-15.1c7.1,0,11.8,4.3,13.1,10.4h-5.4c-0.8-3.6-3.3-6.5-7.7-6.5
		c-5.5,0-8.7,4.4-8.7,11.2s3.2,11.2,8.7,11.2c4.2,0,6.8-2.3,8-6.4h5.4c-1.5,6.6-6.8,10.3-13.4,10.3C803.5,153.5,798,147.4,798,138.4
		z"/>
	<path class="st0" d="M854.8,134.3v0.1v18.5h-5.3V147c-2,4.1-4.4,6.5-10,6.5c-5.4,0-9.7-3.9-9.7-9.3c0-6.8,6.8-8,11.9-8.6l7.8-0.8
		v-0.5v-0.1c0-3.8-2.1-7-6.7-7c-4,0-6.3,2.5-6.7,5.2h-5.4c0.6-5.5,5.3-9.1,12.1-9.1C851.6,123.4,854.8,128.9,854.8,134.3z
		 M849.5,140.6v-2.2l-5.8,0.6c-4,0.4-8.5,1-8.5,5.2c0,3.7,2.9,5.8,6.3,5.8C846.8,150,849.5,145.8,849.5,140.6z"/>
	<path class="st0" d="M862.9,152.9v-41h5.3v41H862.9z"/>
	<path class="st0" d="M915.7,152.9h-6.6l-13.7-15.6v15.6h-5.3v-41h5.3v24.5l13.2-12.4h6.6l-13.7,12.8L915.7,152.9z"/>
	<path class="st0" d="M944.3,134.9v0.1v17.9H939v-17.1v-0.1c0-5.9-2.7-8.4-6.9-8.4c-4.2,0-6.9,2.6-6.9,8.5v17.1h-5.3V124h5.3v5.9
		c1.3-3.4,4.1-6.5,9.1-6.5C940.8,123.4,944.3,128.4,944.3,134.9z"/>
</g>
<g class="st1">
	<path class="st0" d="M950.6,138.4c0-9,5.5-15.1,14.1-15.1s14,6.1,14,15.1s-5.5,15.1-14,15.1S950.6,147.4,950.6,138.4z M973.3,138.4
		c0-6.8-3.1-11.2-8.6-11.2s-8.7,4.4-8.7,11.2s3.2,11.2,8.7,11.2S973.3,145.2,973.3,138.4z"/>
</g>
<g class="st1">
	<path class="st0" d="M1022.6,124h5.1l-7.1,28.9h-10.1l-5.6-28.7l-5.6,28.7h-10.1l-7.1-28.9h5.1l7.1,28.7l5.6-28.7h10l5.6,28.7
		L1022.6,124z"/>
	<path class="st0" d="M1032.5,139.8v-4.4h17.1v4.4H1032.5z"/>
	<path class="st0" d="M1081.8,134.9v0.1v17.9h-5.3v-17.1v-0.1c0-5.9-2.7-8.4-6.9-8.4c-4.2,0-6.9,2.6-6.9,8.5v17.1h-5.3v-41h5.3v18
		c1.3-3.4,4.1-6.5,9.1-6.5C1078.3,123.4,1081.8,128.4,1081.8,134.9z"/>
</g>
<g class="st1">
	<path class="st0" d="M1088.1,138.4c0-9,5.5-15.1,14.1-15.1c8.6,0,14,6.1,14,15.1s-5.5,15.1-14,15.1S1088.1,147.4,1088.1,138.4z
		 M1110.8,138.4c0-6.8-3.1-11.2-8.6-11.2c-5.5,0-8.7,4.4-8.7,11.2s3.2,11.2,8.7,11.2C1107.7,149.6,1110.8,145.2,1110.8,138.4z"/>
</g>
<g class="st1">
	<path class="st0" d="M1160.1,124h5.1l-7.1,28.9H1148l-5.6-28.7l-5.6,28.7h-10.1l-7.1-28.9h5.1l7.1,28.7l5.6-28.7h10l5.6,28.7
		L1160.1,124z"/>
</g>
<g class="st1">
	<path class="st0" d="M1168.9,152.9v-6.5h6.4v6.5H1168.9z"/>
</g>
</svg>
