<?xml version="1.0" encoding="utf-8"?>
<!-- Generator: Adobe Illustrator 26.2.1, SVG Export Plug-In . SVG Version: 6.00 Build 0)  -->
<svg version="1.1" id="Layer_1" xmlns="http://www.w3.org/2000/svg" xmlns:xlink="http://www.w3.org/1999/xlink" x="0px" y="0px"
	 viewBox="0 0 1131 528.6" style="enable-background:new 0 0 1131 528.6;" xml:space="preserve">
<style type="text/css">
	.st0{fill:none;}
	.st1{enable-background:new    ;}
	.st2{fill:#57A67B;}
</style>
<rect class="st0" width="1131" height="528.6"/>
<g class="st1">
	<path class="st2" d="M425.7,317.2h5.8l-10.1,41H410l-8.1-40.8l-8.1,40.8h-11.3l-10.1-41h5.8l10,40.8l8.1-40.8h11.2l8.1,40.8
		L425.7,317.2z"/>
</g>
<g class="st1">
	<path class="st2" d="M433,343.7c0-9,5.5-15.1,14.1-15.1c8.6,0,14,6.1,14,15.1c0,9-5.5,15.1-14,15.1
		C438.5,358.8,433,352.7,433,343.7z M455.8,343.7c0-6.8-3.1-11.2-8.6-11.2c-5.5,0-8.7,4.4-8.7,11.2c0,6.8,3.2,11.2,8.7,11.2
		C452.6,354.9,455.8,350.5,455.8,343.7z"/>
	<path class="st2" d="M473,335.5c1.3-4,4.2-6.8,9.5-6.8v5.2h-1.6c-5.3,0-7.9,1.7-7.9,6.9v17.4h-5.3v-28.9h5.3V335.5z"/>
	<path class="st2" d="M487.9,358.2v-41h5.3v41H487.9z"/>
	<path class="st2" d="M522.4,317.2h5.3v41h-5.3v-6.3c-1.8,4.2-5.9,6.9-10.2,6.9c-7,0-12.3-6.2-12.3-15.1s5.3-15.1,12.3-15.1
		c5.4,0,8.9,3.7,10.2,7.6V317.2z M522.6,343.7c0-6.8-3.2-11.2-8.7-11.2c-5.5,0-8.6,4.4-8.6,11.2c0,6.8,3.1,11.2,8.6,11.2
		C519.4,354.9,522.6,350.5,522.6,343.7z"/>
	<path class="st2" d="M535.5,345.1v-4.4h17.1v4.4H535.5z"/>
	<path class="st2" d="M558.5,343.7c0-9,5.5-15.1,14.1-15.1c7.1,0,11.8,4.3,13.1,10.4h-5.4c-0.8-3.6-3.3-6.5-7.7-6.5
		c-5.5,0-8.7,4.4-8.7,11.2c0,6.8,3.2,11.2,8.7,11.2c4.2,0,6.8-2.3,8-6.4h5.4c-1.5,6.6-6.8,10.3-13.4,10.3
		C564,358.8,558.5,352.7,558.5,343.7z"/>
	<path class="st2" d="M592,358.2v-41h5.3v41H592z"/>
	<path class="st2" d="M629.1,339.6v0.1v18.5h-5.3v-5.9c-2,4.1-4.4,6.5-10,6.5c-5.4,0-9.7-3.9-9.7-9.3c0-6.8,6.8-8,11.9-8.6l7.8-0.8
		v-0.5v-0.1c0-3.8-2.1-7-6.7-7c-4.1,0-6.3,2.5-6.7,5.2H605c0.6-5.5,5.3-9.1,12.1-9.1C625.9,328.7,629.1,334.2,629.1,339.6z
		 M623.8,345.9v-2.2l-5.8,0.6c-4,0.4-8.5,1-8.5,5.2c0,3.7,2.9,5.8,6.3,5.8C621.1,355.3,623.8,351.1,623.8,345.9z"/>
	<path class="st2" d="M635,349.7h5.4c0.8,4.1,3.9,5.2,6.9,5.2c4.5,0,6.9-1.7,6.9-4.4c0-2.6-1.5-3.8-5.8-4.8l-4-0.9
		c-5-1.1-8.5-3.3-8.5-7.8c0-5.1,5.1-8.5,11.4-8.5c5.6,0,10.4,2.6,11.7,7.8h-5.4c-0.8-2.5-3.5-3.9-6.3-3.9c-3.1,0-6.2,1.5-6.2,4
		c0,2.3,1.9,3.1,5.8,3.9l4.1,0.9c6,1.3,8.5,4,8.5,8.5c0,5.6-5,8.9-12.1,8.9C640.8,358.8,635.8,355.7,635,349.7z"/>
	<path class="st2" d="M663.6,349.7h5.4c0.8,4.1,3.9,5.2,6.9,5.2c4.5,0,6.9-1.7,6.9-4.4c0-2.6-1.5-3.8-5.8-4.8l-4-0.9
		c-5-1.1-8.5-3.3-8.5-7.8c0-5.1,5.1-8.5,11.4-8.5c5.6,0,10.4,2.6,11.7,7.8h-5.4c-0.8-2.5-3.5-3.9-6.3-3.9c-3.1,0-6.2,1.5-6.2,4
		c0,2.3,1.9,3.1,5.8,3.9l4.1,0.9c6,1.3,8.5,4,8.5,8.5c0,5.6-5,8.9-12.1,8.9C669.4,358.8,664.4,355.7,663.6,349.7z"/>
</g>
<g class="st1">
	<path class="st2" d="M733.4,345.3h-21.9c0.4,6.3,3.6,9.6,8.4,9.6c4.2,0,6.4-1.9,7.5-5.2h5.4c-1.7,6.2-6.4,9.1-12.9,9.1
		c-8.7,0-13.8-6.4-13.8-15.1c0-8.8,5.1-15.1,13.7-15.1c8.1,0,13.6,5.7,13.6,14.6C733.5,343.8,733.4,344.6,733.4,345.3z M711.6,341.3
		h16.5c-0.3-5.2-3.5-8.7-8.2-8.7C715.3,332.5,712.2,335.5,711.6,341.3z"/>
</g>
<g class="st1">
	<path class="st2" d="M764,358.2h-5.7l-8.8-12l-8.8,12h-5.7l11.4-15.6l-10.3-13.4h5.7l7.7,10l7.7-10h5.7l-10.3,13.4L764,358.2z"/>
	<path class="st2" d="M796.3,343.7c0,8.9-5.3,15.1-12.3,15.1c-4.3,0-8.4-2.8-10.2-6.9v16.9h-5.3v-39.5h5.3v7
		c1.3-3.9,4.8-7.6,10.2-7.6C791,328.7,796.3,334.8,796.3,343.7z M790.9,343.7c0-6.8-3.1-11.2-8.6-11.2c-5.5,0-8.7,4.4-8.7,11.2
		c0,6.8,3.2,11.2,8.7,11.2C787.8,354.9,790.9,350.5,790.9,343.7z"/>
	<path class="st2" d="M828.4,345.3h-21.9c0.4,6.3,3.6,9.6,8.4,9.6c4.2,0,6.4-1.9,7.5-5.2h5.4c-1.7,6.2-6.4,9.1-12.9,9.1
		c-8.7,0-13.8-6.4-13.8-15.1c0-8.8,5.1-15.1,13.7-15.1c8.1,0,13.6,5.7,13.6,14.6C828.5,343.8,828.5,344.6,828.4,345.3z M806.6,341.3
		h16.5c-0.3-5.2-3.5-8.7-8.2-8.7C810.3,332.5,807.2,335.5,806.6,341.3z"/>
	<path class="st2" d="M840.4,335.5c1.3-4,4.2-6.8,9.5-6.8v5.2h-1.6c-5.3,0-7.9,1.7-7.9,6.9v17.4h-5.3v-28.9h5.3V335.5z"/>
	<path class="st2" d="M855,324.3v-7.1h5.7v7.1H855z M855.3,358.2v-28.9h5.3v28.9H855.3z"/>
	<path class="st2" d="M894.4,345.3h-21.9c0.4,6.3,3.6,9.6,8.4,9.6c4.2,0,6.4-1.9,7.5-5.2h5.4c-1.7,6.2-6.4,9.1-12.9,9.1
		c-8.7,0-13.8-6.4-13.8-15.1c0-8.8,5.1-15.1,13.7-15.1c8.1,0,13.6,5.7,13.6,14.6C894.5,343.8,894.5,344.6,894.4,345.3z M872.6,341.3
		h16.5c-0.3-5.2-3.5-8.7-8.2-8.7C876.3,332.5,873.2,335.5,872.6,341.3z"/>
	<path class="st2" d="M925.5,340.2v0.1v17.9h-5.3v-17.1V341c0-5.9-2.7-8.4-6.9-8.4c-4.2,0-6.9,2.6-6.9,8.5v17.1h-5.3v-28.9h5.3v5.9
		c1.3-3.4,4.1-6.5,9.1-6.5C922,328.7,925.5,333.7,925.5,340.2z"/>
	<path class="st2" d="M931.8,343.7c0-9,5.5-15.1,14.1-15.1c7.1,0,11.8,4.3,13.1,10.4h-5.4c-0.8-3.6-3.3-6.5-7.7-6.5
		c-5.5,0-8.7,4.4-8.7,11.2c0,6.8,3.2,11.2,8.7,11.2c4.2,0,6.8-2.3,8-6.4h5.4c-1.5,6.6-6.8,10.3-13.4,10.3
		C937.3,358.8,931.8,352.7,931.8,343.7z"/>
	<path class="st2" d="M990.7,345.3h-21.9c0.4,6.3,3.6,9.6,8.4,9.6c4.2,0,6.4-1.9,7.5-5.2h5.4c-1.7,6.2-6.4,9.1-12.9,9.1
		c-8.7,0-13.8-6.4-13.8-15.1c0-8.8,5.1-15.1,13.7-15.1c8.1,0,13.6,5.7,13.6,14.6C990.8,343.8,990.7,344.6,990.7,345.3z M968.9,341.3
		h16.5c-0.3-5.2-3.5-8.7-8.2-8.7C972.6,332.5,969.5,335.5,968.9,341.3z"/>
</g>
<g class="st1">
	<path class="st2" d="M997.3,358.2v-6.5h6.4v6.5H997.3z"/>
</g>
<g class="st1">
	<path class="st2" d="M382,418h18.8v4.9h-24.2v-41h5.5V418z"/>
</g>
<g class="st1">
	<path class="st2" d="M403.3,408.4c0-9,5.5-15.1,14.1-15.1c8.6,0,14,6.1,14,15.1c0,9-5.5,15.1-14,15.1
		C408.8,423.5,403.3,417.4,403.3,408.4z M426.1,408.4c0-6.8-3.1-11.2-8.6-11.2c-5.5,0-8.7,4.4-8.7,11.2c0,6.8,3.2,11.2,8.7,11.2
		C422.9,419.6,426.1,415.2,426.1,408.4z"/>
	<path class="st2" d="M436.2,408.4c0-9,5.5-15.1,14.1-15.1c7.1,0,11.8,4.3,13.1,10.4H458c-0.8-3.6-3.3-6.5-7.7-6.5
		c-5.5,0-8.7,4.4-8.7,11.2c0,6.8,3.2,11.2,8.7,11.2c4.2,0,6.8-2.3,8-6.4h5.4c-1.5,6.6-6.8,10.3-13.4,10.3
		C441.7,423.5,436.2,417.4,436.2,408.4z"/>
	<path class="st2" d="M493.1,404.3v0.1v18.5h-5.3V417c-2,4.1-4.4,6.5-10,6.5c-5.4,0-9.7-3.9-9.7-9.3c0-6.8,6.8-8,11.9-8.6l7.8-0.8
		v-0.5v-0.1c0-3.8-2.1-7-6.7-7c-4.1,0-6.3,2.5-6.7,5.2H469c0.6-5.5,5.3-9.1,12.1-9.1C489.9,393.4,493.1,398.9,493.1,404.3z
		 M487.8,410.6v-2.2L482,409c-4,0.4-8.5,1-8.5,5.2c0,3.7,2.9,5.8,6.3,5.8C485.1,420,487.8,415.8,487.8,410.6z"/>
	<path class="st2" d="M501.2,422.9v-41h5.3v41H501.2z"/>
	<path class="st2" d="M554,422.9h-6.6l-13.7-15.6v15.6h-5.3v-41h5.3v24.5l13.2-12.4h6.6l-13.7,12.8L554,422.9z"/>
	<path class="st2" d="M582.6,404.9v0.1v17.9h-5.3v-17.1v-0.1c0-5.9-2.7-8.4-6.9-8.4c-4.2,0-6.9,2.6-6.9,8.5v17.1h-5.3V394h5.3v5.9
		c1.3-3.4,4.1-6.5,9.1-6.5C579.1,393.4,582.6,398.4,582.6,404.9z"/>
</g>
<g class="st1">
	<path class="st2" d="M588.8,408.4c0-9,5.5-15.1,14.1-15.1c8.6,0,14,6.1,14,15.1c0,9-5.5,15.1-14,15.1
		C594.3,423.5,588.8,417.4,588.8,408.4z M611.6,408.4c0-6.8-3.1-11.2-8.6-11.2c-5.5,0-8.7,4.4-8.7,11.2c0,6.8,3.2,11.2,8.7,11.2
		C608.4,419.6,611.6,415.2,611.6,408.4z"/>
</g>
<g class="st1">
	<path class="st2" d="M660.9,394h5.1l-7.1,28.9h-10.1l-5.6-28.7l-5.6,28.7h-10.1l-7.1-28.9h5.1l7.1,28.7l5.6-28.7h10l5.6,28.7
		L660.9,394z"/>
	<path class="st2" d="M670.8,409.8v-4.4h17.1v4.4H670.8z"/>
	<path class="st2" d="M720.1,404.9v0.1v17.9h-5.3v-17.1v-0.1c0-5.9-2.7-8.4-6.9-8.4c-4.2,0-6.9,2.6-6.9,8.5v17.1h-5.3v-41h5.3v18
		c1.3-3.4,4.1-6.5,9.1-6.5C716.6,393.4,720.1,398.4,720.1,404.9z"/>
</g>
<g class="st1">
	<path class="st2" d="M726.4,408.4c0-9,5.5-15.1,14.1-15.1c8.6,0,14,6.1,14,15.1c0,9-5.5,15.1-14,15.1
		C731.9,423.5,726.4,417.4,726.4,408.4z M749.1,408.4c0-6.8-3.1-11.2-8.6-11.2c-5.5,0-8.7,4.4-8.7,11.2c0,6.8,3.2,11.2,8.7,11.2
		C746,419.6,749.1,415.2,749.1,408.4z"/>
</g>
<g class="st1">
	<path class="st2" d="M798.4,394h5.1l-7.1,28.9h-10.1l-5.6-28.7l-5.6,28.7H765l-7.1-28.9h5.1l7.1,28.7l5.6-28.7h10l5.6,28.7
		L798.4,394z"/>
</g>
<g class="st1">
	<path class="st2" d="M807.1,422.9v-6.5h6.4v6.5H807.1z"/>
</g>
<path class="st2" d="M232.4,193.8L201,141h52.3l31.5,52.9l-31.5,52.9H201L232.4,193.8z M179.8,105.7l-52.4,88.1l52.4,88.1h104.9
	l52.4-88.1l-52.4-88.1H179.8z"/>
<path d="M412.5,246.7v-73.4h-40.2V141h127.3v32.3h-40.2v73.4L412.5,246.7z M740.4,141l-30.5,30.1L680.3,141h-49l50.4,50.5
	l-50.5,55.2h49.2l30.1-34.2l30,34.2h50l-51.8-55.8l51.6-49.9H740.4z M651.4,193.9c0,16.9-7.6,30-18.8,39.1s-27.2,13.7-47.9,13.7
	h-76.2V141h76.1c20.8,0,36.7,4.6,47.9,13.7C643.8,163.8,651.4,176.9,651.4,193.9L651.4,193.9z M607.6,193.9c0-6.6-3-12.8-8.2-16.9
	c-4.7-3.9-11.5-5.9-20.1-5.9h-26v45.5h26c8.7,0,15.4-2,20.1-5.9C604.6,206.6,607.6,200.4,607.6,193.9L607.6,193.9z"/>
</svg>
