<svg id="Layer_1" data-name="Layer 1" xmlns="http://www.w3.org/2000/svg" viewBox="0 0 917.65 387.63"><defs><style>.cls-1{fill:none;}.cls-2{fill:#57a67b;}</style></defs><rect class="cls-1" width="917.65" height="387.63"/><path class="cls-2" d="M232.45,193.82,201,141h52.33l31.46,52.86-31.46,52.86H201Zm-52.67-88.1-52.44,88.09,52.44,88.11H284.66l52.44-88.11-52.44-88.09Z"/><path d="M412.52,246.68V173.26H372.34V141H499.68v32.3H459.5v73.42ZM740.41,141l-30.54,30.1L680.35,141h-49l50.37,50.51-50.51,55.2h49.16l30.1-34.21,30,34.21h50.05l-51.84-55.79L790.31,141Zm-89,52.86c0,16.93-7.6,30-18.81,39.13s-27.19,13.72-47.94,13.72H508.49V141h76.14q31.13,0,47.94,13.73C643.78,163.84,651.38,176.88,651.38,193.82Zm-43.78,0A21.52,21.52,0,0,0,599.43,177c-4.71-3.91-11.49-5.89-20.14-5.89h-26v45.52h26c8.65,0,15.43-2,20.14-5.9A21.51,21.51,0,0,0,607.6,193.82Z"/></svg>