<?xml version="1.0" encoding="utf-8"?>
<!-- Generator: Adobe Illustrator 26.2.1, SVG Export Plug-In . SVG Version: 6.00 Build 0)  -->
<svg version="1.1" id="Layer_1" xmlns="http://www.w3.org/2000/svg" xmlns:xlink="http://www.w3.org/1999/xlink" x="0px" y="0px"
	 viewBox="0 0 917.7 387.6" style="enable-background:new 0 0 917.7 387.6;" xml:space="preserve">
<style type="text/css">
	.st0{fill:none;}
</style>
<rect class="st0" width="917.7" height="387.6"/>
<path d="M132.6,193.8l-39.3-66h65.3l39.3,66l-39.3,66H93.3L132.6,193.8z M66.8,83.8l-65.5,110l65.5,110h131l65.5-110l-65.5-110
	L66.8,83.8z"/>
<path d="M357.4,259.8v-91.7h-50.2v-40.3h159v40.3h-50.2v91.7L357.4,259.8z M766.8,127.9l-38.1,37.6l-36.9-37.6h-61.2l62.9,63.1
	l-63.1,68.9h61.4l37.6-42.7l37.5,42.7h62.5l-64.7-69.7l64.5-62.3H766.8z M655.7,193.9c0,21.1-9.5,37.5-23.5,48.9
	c-14,11.4-33.9,17.1-59.9,17.1h-95.1v-132h95.1c25.9,0,45.9,5.7,59.9,17.1C646.2,156.4,655.6,172.7,655.7,193.9L655.7,193.9z
	 M601,193.9c0-8.2-3.8-16-10.2-21.1c-5.9-4.9-14.3-7.4-25.1-7.4h-32.5v56.8h32.5c10.8,0,19.3-2.5,25.1-7.4
	C597.2,209.8,601,202,601,193.9L601,193.9z"/>
</svg>
