<?xml version="1.0" encoding="UTF-8"?><svg xmlns="http://www.w3.org/2000/svg" viewBox="0 0 1670 260"><defs><style>.c{fill:#fff;}.d{fill:#57a67b;}.e{fill:none;stroke:#57a67b;stroke-miterlimit:10;stroke-width:1.81px;}</style></defs><g id="a"/><g id="b"><path class="d" d="M204.49,130l-42.06-70.72h70.05l42.19,70.85-42.19,70.85h-70.05l42.06-70.99ZM134.03,12L63.85,130l70.18,118h140.5l70.18-118L274.54,12H134.03Z"/><path class="c" d="M445.71,200.85V102.54h-53.84V59.28h170.5v43.26h-53.84v98.31h-62.82ZM884.89,59.28l-40.85,40.32-39.65-40.32h-65.63l67.51,67.64-67.64,73.93h65.9l40.32-45.81,40.18,45.81h66.97l-69.38-74.74,69.11-66.84h-66.84Zm-119.21,70.85c0,22.64-10.18,40.18-25.18,52.37-15,12.19-36.43,18.35-64.16,18.35h-102.06V59.28h101.93c27.86,0,49.16,6.16,64.16,18.35,15.14,12.19,25.31,29.73,25.31,52.5h0Zm-58.67,0c0-8.84-4.02-17.14-10.98-22.64-6.3-5.22-15.4-7.9-26.92-7.9h-34.82v60.94h34.82c11.65,0,20.63-2.68,26.92-7.9,6.96-5.49,10.98-13.8,10.98-22.5h0Z"/><g><g><path class="d" d="M1160.26,57.88v6.53h-18.35v48.59h-7.32v-48.59h-18.35v-6.53h44.02Z"/><path class="d" d="M1198.92,88.78v24.22h-7.11v-23.13c0-7.9-3.63-11.31-9.28-11.31s-9.28,3.48-9.28,11.46v22.99h-7.11V57.88h7.11v24.15c1.74-4.57,5.51-8.7,12.18-8.7,8.77,0,13.49,6.74,13.49,15.45Z"/><path class="d" d="M1243.24,95.67h-29.37c.58,8.41,4.86,12.91,11.31,12.91,5.66,0,8.63-2.61,10.08-6.96h7.25c-2.25,8.27-8.56,12.18-17.33,12.18-11.75,0-18.49-8.56-18.49-20.23s6.89-20.23,18.42-20.23c10.88,0,18.27,7.69,18.27,19.65,0,.72-.07,1.74-.14,2.68Zm-29.3-5.37h22.19c-.44-6.96-4.64-11.75-11.02-11.75s-10.3,3.99-11.17,11.75Z"/><path class="d" d="M1301.7,88.78v24.22h-7.11v-23.13c0-7.9-3.63-11.31-9.28-11.31s-9.28,3.48-9.28,11.46v22.99h-7.11v-38.87h7.11v7.9c1.74-4.57,5.51-8.7,12.18-8.7,8.77,0,13.49,6.74,13.49,15.45Z"/><path class="d" d="M1346.02,95.67h-29.37c.58,8.41,4.86,12.91,11.31,12.91,5.66,0,8.63-2.61,10.08-6.96h7.25c-2.25,8.27-8.56,12.18-17.33,12.18-11.75,0-18.49-8.56-18.49-20.23s6.89-20.23,18.42-20.23c10.88,0,18.27,7.69,18.27,19.65,0,.72-.07,1.74-.14,2.68Zm-29.3-5.37h22.19c-.44-6.96-4.64-11.75-11.02-11.75s-10.3,3.99-11.17,11.75Z"/><path class="d" d="M1404.69,74.13h6.89l-9.57,38.87h-13.56l-7.54-38.51-7.54,38.51h-13.56l-9.57-38.87h6.89l9.5,38.51,7.54-38.51h13.49l7.54,38.51,9.5-38.51Z"/><path class="d" d="M1467.15,88.78v24.22h-7.11v-23.13c0-7.9-3.63-11.31-9.28-11.31s-9.28,3.48-9.28,11.46v22.99h-7.11v-38.87h7.11v7.9c1.74-4.57,5.51-8.7,12.18-8.7,8.77,0,13.49,6.74,13.49,15.45Z"/><path class="d" d="M1508.71,87.98v25.02h-7.11v-7.98c-2.68,5.44-5.87,8.77-13.42,8.77s-13.05-5.29-13.05-12.47c0-9.07,9.06-10.81,16.03-11.53l10.44-1.09v-.8c0-5.08-2.83-9.36-8.99-9.36-5.44,0-8.48,3.34-8.99,7.04h-7.25c.87-7.33,7.11-12.26,16.24-12.26,11.82,0,16.1,7.4,16.1,14.65Zm-7.11,8.49v-2.9l-7.76,.8c-5.37,.58-11.46,1.31-11.46,6.96,0,5,3.92,7.76,8.41,7.76,7.18,0,10.81-5.66,10.81-12.62Z"/><path class="d" d="M1575,88.78v24.22h-7.11v-23.13c0-7.83-3.05-11.31-8.7-11.31s-8.7,3.48-8.7,11.46v22.99h-7.11v-23.13c0-7.83-3.05-11.31-8.7-11.31s-8.7,3.48-8.7,11.46v22.99h-7.11v-38.87h7.11v7.9c1.74-4.64,5.22-8.7,11.6-8.7s10.81,4.71,12.18,9.72c1.6-4.71,5.37-9.72,12.33-9.72,8.48,0,12.91,6.45,12.91,15.45Z"/><path class="d" d="M1619.32,95.67h-29.37c.58,8.41,4.86,12.91,11.31,12.91,5.66,0,8.63-2.61,10.08-6.96h7.25c-2.25,8.27-8.56,12.18-17.33,12.18-11.75,0-18.49-8.56-18.49-20.23s6.89-20.23,18.42-20.23c10.88,0,18.27,7.69,18.27,19.65,0,.72-.07,1.74-.14,2.68Zm-29.3-5.37h22.19c-.44-6.96-4.64-11.75-11.02-11.75s-10.3,3.99-11.17,11.75Z"/><path class="d" d="M1136.91,150.29c-3.55,0-5.66,1.16-5.66,5.44v5.44h10.01v5.37h-10.01v33.5h-7.11v-33.5h-8.05v-5.37h8.05v-5.44c0-7.47,5.22-10.81,12.04-10.81h5.08v5.37h-4.35Z"/><path class="d" d="M1143.44,180.6c0-12.04,7.4-20.23,18.93-20.23s18.86,8.19,18.86,20.23-7.33,20.23-18.86,20.23-18.93-8.19-18.93-20.23Zm30.53,0c0-9.14-4.21-15.01-11.6-15.01s-11.68,5.87-11.68,15.01,4.28,15.01,11.68,15.01,11.6-5.87,11.6-15.01Z"/><path class="d" d="M1196.46,169.51c1.74-5.44,5.58-9.14,12.76-9.14v7.03h-2.18c-7.11,0-10.59,2.25-10.59,9.21v23.42h-7.11v-38.87h7.11v8.34Z"/><path class="d" d="M1272.62,144.92v9.57h-17.12v45.54h-11.46v-45.54h-17.12v-9.57h45.69Z"/><path class="d" d="M1281.03,170.96c1.52-6.16,5.51-11.17,13.13-11.17v10.88h-2.83c-6.89,0-10.22,2.32-10.22,8.99v20.38h-11.1v-39.38h11.02v10.3Z"/><path class="d" d="M1334.34,175.24v24.8h-10.95v-7.4c-2.25,4.71-5.8,8.27-13.13,8.27s-13.71-5.22-13.71-12.83c0-8.99,8.56-11.24,16.32-11.97l10.37-1.01v-.65c0-3.99-2.32-7.11-7.03-7.11-4.35,0-6.67,2.54-7.11,5.29h-11.17c1.01-8.05,8.27-12.84,18.27-12.84,12.26,0,18.13,6.6,18.13,15.45Zm-11.1,8.05v-1.6l-6.31,.65c-4.5,.51-9.06,1.31-9.06,5.73,0,3.84,2.97,6.16,6.74,6.16,5.66,0,8.63-4.79,8.63-10.95Z"/><path class="d" d="M1379.17,175.09v24.95h-11.1v-22.55c0-6.82-2.61-9.94-7.25-9.94s-7.25,3.12-7.25,10.08v22.41h-11.1v-39.38h11.02v8.05c1.81-4.93,5.66-8.92,12.55-8.92,9.21,0,13.13,6.6,13.13,15.3Z"/><path class="d" d="M1384.9,188.15h11.17c.8,3.99,4.13,5.22,7.61,5.22,4.86,0,7.47-1.6,7.47-4.13,0-2.39-1.6-3.55-6.96-4.79l-6.96-1.52c-7.47-1.6-11.53-5.08-11.53-10.95,0-7.47,7.69-12.18,17.12-12.18,8.92,0,16.39,3.7,18.13,11.31h-11.17c-.87-2.47-3.7-3.77-6.89-3.77-3.55,0-6.6,1.31-6.6,3.77,0,2.25,2.25,3.12,6.31,3.99l6.96,1.52c8.27,1.81,12.18,5.37,12.18,11.75,0,8.05-7.98,12.54-18.49,12.54-9.72,0-16.97-4.13-18.35-12.76Z"/><path class="d" d="M1449.45,144.92c16.75,0,28.07,8.99,28.07,27.56s-11.31,27.56-28.07,27.56h-20.31v-55.12h20.31Zm.29,45.54c10.08,0,15.95-6.31,15.95-17.98s-5.87-17.99-15.95-17.99h-9.14v35.97h9.14Z"/><path class="d" d="M1484.27,155.37v-10.44h11.46v10.44h-11.46Zm.15,44.67v-39.38h11.1v39.38h-11.1Z"/><path class="d" d="M1541.71,183.65h-28.36c.8,6.6,4.21,9.72,8.78,9.72,4.28,0,6.38-1.81,7.76-5h11.17c-2.61,8.34-9.57,12.54-19,12.54-12.26,0-20.02-8.48-20.02-20.59s8.05-20.52,20.02-20.52,19.87,8.34,19.87,20.74c0,.94-.07,2.03-.22,3.12Zm-28.28-7.4h17.19c-.58-5.58-3.92-8.92-8.56-8.92s-7.69,2.76-8.63,8.92Z"/><path class="d" d="M1545.92,188.15h11.17c.8,3.99,4.13,5.22,7.61,5.22,4.86,0,7.47-1.6,7.47-4.13,0-2.39-1.6-3.55-6.96-4.79l-6.96-1.52c-7.47-1.6-11.53-5.08-11.53-10.95,0-7.47,7.69-12.18,17.12-12.18,8.92,0,16.39,3.7,18.13,11.31h-11.17c-.87-2.47-3.7-3.77-6.89-3.77-3.55,0-6.6,1.31-6.6,3.77,0,2.25,2.25,3.12,6.31,3.99l6.96,1.52c8.27,1.81,12.18,5.37,12.18,11.75,0,8.05-7.98,12.54-18.49,12.54-9.72,0-16.97-4.13-18.35-12.76Z"/><path class="d" d="M1626.65,183.65h-28.36c.8,6.6,4.21,9.72,8.78,9.72,4.28,0,6.38-1.81,7.76-5h11.17c-2.61,8.34-9.57,12.54-19,12.54-12.26,0-20.02-8.48-20.02-20.59s8.05-20.52,20.02-20.52,19.87,8.34,19.87,20.74c0,.94-.07,2.03-.22,3.12Zm-28.28-7.4h17.19c-.58-5.58-3.92-8.92-8.56-8.92s-7.69,2.76-8.63,8.92Z"/><path class="d" d="M1633.33,200.04v-55.12h11.1v55.12h-11.1Z"/><path class="d" d="M1653.13,200.04v-11.1h11.97v11.1h-11.97Z"/></g><line class="e" x1="1039.06" y1="12.13" x2="1039.06" y2="247.87"/></g></g></svg>