<?xml version="1.0" encoding="utf-8"?>
<!-- Generator: Adobe Illustrator 26.2.1, SVG Export Plug-In . SVG Version: 6.00 Build 0)  -->
<svg version="1.1" id="Layer_1" xmlns="http://www.w3.org/2000/svg" xmlns:xlink="http://www.w3.org/1999/xlink" x="0px" y="0px"
	 viewBox="0 0 1615.4 387.6" style="enable-background:new 0 0 1615.4 387.6;" xml:space="preserve">
<style type="text/css">
	.st0{fill:#57A67B;}
	.st1{fill:#FFFFFF;}
	.st2{fill:none;stroke:#57A67B;stroke-width:1.8249;stroke-miterlimit:10;}
</style>
<g id="a">
</g>
<g id="b">
	<path class="st0" d="M146.5,193.8l-42.2-71h70.3l42.4,71.2l-42.4,71.2h-70.3L146.5,193.8L146.5,193.8z M75.8,75.3L5.3,193.8
		l70.5,118.5h141.1l70.5-118.5L216.9,75.3L75.8,75.3L75.8,75.3z"/>
	<path class="st1" d="M388.7,265v-98.7h-54.1v-43.4h171.2v43.4h-54.1V265H388.7L388.7,265z M829.8,122.8l-41,40.5L749,122.8H683
		l67.8,67.9L682.9,265h66.2l40.5-46l40.3,46h67.2l-69.7-75.1l69.4-67.1L829.8,122.8L829.8,122.8z M710.1,193.9
		c0,22.7-10.2,40.3-25.3,52.6c-15.1,12.2-36.6,18.4-64.4,18.4H517.9V122.8h102.4c28,0,49.4,6.2,64.4,18.4
		C699.9,153.5,710.1,171.1,710.1,193.9L710.1,193.9L710.1,193.9z M651.2,193.9c0-8.9-4-17.2-11-22.7c-6.3-5.2-15.5-7.9-27-7.9h-35
		v61.2h35c11.7,0,20.7-2.7,27-7.9C647.1,211,651.2,202.7,651.2,193.9L651.2,193.9L651.2,193.9z"/>
	<g>
		<g>
			<path class="st0" d="M1106.3,121.4v6.6h-18.4v48.8h-7.4v-48.8h-18.4v-6.6H1106.3z"/>
			<path class="st0" d="M1145.2,152.4v24.3h-7.1v-23.2c0-7.9-3.6-11.4-9.3-11.4c-5.7,0-9.3,3.5-9.3,11.5v23.1h-7.1v-55.4h7.1v24.3
				c1.7-4.6,5.5-8.7,12.2-8.7C1140.4,136.9,1145.1,143.7,1145.2,152.4L1145.2,152.4z"/>
			<path class="st0" d="M1189.7,159.3h-29.5c0.6,8.4,4.9,13,11.4,13c5.7,0,8.7-2.6,10.1-7h7.3c-2.3,8.3-8.6,12.2-17.4,12.2
				c-11.8,0-18.6-8.6-18.6-20.3s6.9-20.3,18.5-20.3c10.9,0,18.4,7.7,18.4,19.7C1189.8,157.3,1189.7,158.4,1189.7,159.3L1189.7,159.3
				z M1160.2,153.9h22.3c-0.4-7-4.7-11.8-11.1-11.8S1161.1,146.1,1160.2,153.9L1160.2,153.9z"/>
			<path class="st0" d="M1248.4,152.4v24.3h-7.1v-23.2c0-7.9-3.6-11.4-9.3-11.4c-5.7,0-9.3,3.5-9.3,11.5v23.1h-7.1v-39h7.1v7.9
				c1.7-4.6,5.5-8.7,12.2-8.7C1243.6,136.9,1248.4,143.7,1248.4,152.4L1248.4,152.4z"/>
			<path class="st0" d="M1292.9,159.3h-29.5c0.6,8.4,4.9,13,11.4,13c5.7,0,8.7-2.6,10.1-7h7.3c-2.3,8.3-8.6,12.2-17.4,12.2
				c-11.8,0-18.6-8.6-18.6-20.3s6.9-20.3,18.5-20.3c10.9,0,18.4,7.7,18.4,19.7C1293,157.3,1293,158.4,1292.9,159.3L1292.9,159.3z
				 M1263.4,153.9h22.3c-0.4-7-4.7-11.8-11.1-11.8S1264.3,146.1,1263.4,153.9L1263.4,153.9z"/>
			<path class="st0" d="M1351.8,137.7h6.9l-9.6,39h-13.6l-7.6-38.7l-7.6,38.7h-13.6l-9.6-39h6.9l9.5,38.7l7.6-38.7h13.5l7.6,38.7
				L1351.8,137.7L1351.8,137.7z"/>
			<path class="st0" d="M1414.5,152.4v24.3h-7.1v-23.2c0-7.9-3.6-11.4-9.3-11.4c-5.7,0-9.3,3.5-9.3,11.5v23.1h-7.1v-39h7.1v7.9
				c1.8-4.6,5.5-8.7,12.2-8.7C1409.8,136.9,1414.5,143.7,1414.5,152.4z"/>
			<path class="st0" d="M1456.3,151.6v25.1h-7.1v-8c-2.7,5.5-5.9,8.8-13.5,8.8s-13.1-5.3-13.1-12.5c0-9.1,9.1-10.9,16.1-11.6
				l10.5-1.1v-0.8c0-5.1-2.8-9.4-9-9.4c-5.5,0-8.5,3.4-9,7.1h-7.3c0.9-7.4,7.1-12.3,16.3-12.3C1452,136.9,1456.3,144.3,1456.3,151.6
				L1456.3,151.6z M1449.1,160.1v-2.9l-7.8,0.8c-5.4,0.6-11.5,1.3-11.5,7c0,5,3.9,7.8,8.4,7.8
				C1445.5,172.8,1449.1,167.1,1449.1,160.1L1449.1,160.1z"/>
			<path class="st0" d="M1522.8,152.4v24.3h-7.1v-23.2c0-7.9-3.1-11.4-8.7-11.4c-5.7,0-8.7,3.5-8.7,11.5v23.1h-7.1v-23.2
				c0-7.9-3.1-11.4-8.7-11.4c-5.7,0-8.7,3.5-8.7,11.5v23.1h-7.1v-39h7.1v7.9c1.7-4.7,5.2-8.7,11.6-8.7s10.9,4.7,12.2,9.8
				c1.6-4.7,5.4-9.8,12.4-9.8C1518.4,136.9,1522.8,143.4,1522.8,152.4L1522.8,152.4z"/>
			<path class="st0" d="M1567.3,159.3h-29.5c0.6,8.4,4.9,13,11.4,13c5.7,0,8.7-2.6,10.1-7h7.3c-2.3,8.3-8.6,12.2-17.4,12.2
				c-11.8,0-18.6-8.6-18.6-20.3s6.9-20.3,18.5-20.3c10.9,0,18.4,7.7,18.4,19.7C1567.5,157.3,1567.4,158.4,1567.3,159.3L1567.3,159.3
				z M1537.9,153.9h22.3c-0.4-7-4.7-11.8-11.1-11.8C1542.7,142.1,1538.8,146.1,1537.9,153.9L1537.9,153.9z"/>
			<path class="st0" d="M1082.9,214.2c-3.6,0-5.7,1.2-5.7,5.5v5.5h10v5.4h-10v33.6h-7.1v-33.6h-8.1v-5.4h8.1v-5.5
				c0-7.5,5.2-10.9,12.1-10.9h5.1v5.4H1082.9z"/>
			<path class="st0" d="M1089.4,244.6c0-12.1,7.4-20.3,19-20.3s18.9,8.2,18.9,20.3s-7.4,20.3-18.9,20.3S1089.4,256.7,1089.4,244.6z
				 M1120.1,244.6c0-9.2-4.2-15.1-11.6-15.1s-11.7,5.9-11.7,15.1s4.3,15.1,11.7,15.1S1120.1,253.8,1120.1,244.6z"/>
			<path class="st0" d="M1142.7,233.5c1.8-5.5,5.6-9.2,12.8-9.2v7.1h-2.2c-7.1,0-10.6,2.3-10.6,9.3v23.5h-7.1v-39h7.1L1142.7,233.5
				L1142.7,233.5z"/>
			<path class="st0" d="M1219.2,208.8v9.6H1202v45.7h-11.5v-45.7h-17.2v-9.6H1219.2L1219.2,208.8z"/>
			<path class="st0" d="M1227.6,234.9c1.5-6.2,5.5-11.2,13.2-11.2v10.9h-2.8c-6.9,0-10.3,2.3-10.3,9v20.5h-11.1v-39.5h11.1
				L1227.6,234.9L1227.6,234.9z"/>
			<path class="st0" d="M1281.1,239.2v24.9h-11v-7.4c-2.3,4.7-5.8,8.3-13.2,8.3s-13.8-5.2-13.8-12.9c0-9,8.6-11.3,16.4-12l10.4-1
				v-0.7c0-4-2.3-7.1-7.1-7.1c-4.4,0-6.7,2.5-7.1,5.3h-11.2c1-8.1,8.3-12.9,18.4-12.9C1275.3,223.7,1281.2,230.4,1281.1,239.2
				L1281.1,239.2z M1270,247.3v-1.6l-6.3,0.7c-4.5,0.5-9.1,1.3-9.1,5.8c0,3.9,3,6.2,6.8,6.2C1267,258.3,1270,253.5,1270,247.3z"/>
			<path class="st0" d="M1326.2,239.1v25.1H1315v-22.6c0-6.8-2.6-10-7.3-10s-7.3,3.1-7.3,10.1v22.5h-11.1v-39.5h11.1v8.1
				c1.8-5,5.7-9,12.6-9C1322.2,223.7,1326.2,230.3,1326.2,239.1L1326.2,239.1z"/>
			<path class="st0" d="M1331.9,252.2h11.2c0.8,4,4.1,5.2,7.6,5.2c4.9,0,7.5-1.6,7.5-4.1c0-2.4-1.6-3.6-7-4.8l-7-1.5
				c-7.5-1.6-11.6-5.1-11.6-11c0-7.5,7.7-12.2,17.2-12.2c9,0,16.5,3.7,18.2,11.4h-11.2c-0.9-2.5-3.7-3.8-6.9-3.8
				c-3.6,0-6.6,1.3-6.6,3.8c0,2.3,2.3,3.1,6.3,4l7,1.5c8.3,1.8,12.2,5.4,12.2,11.8c0,8.1-8,12.6-18.6,12.6
				C1340.6,265,1333.3,260.9,1331.9,252.2L1331.9,252.2z"/>
			<path class="st0" d="M1396.7,208.8c16.8,0,28.2,9,28.2,27.7s-11.4,27.7-28.2,27.7h-20.4v-55.4L1396.7,208.8L1396.7,208.8z
				 M1397,254.5c10.1,0,16-6.3,16-18.1s-5.9-18.1-16-18.1h-9.2v36.1L1397,254.5L1397,254.5z"/>
			<path class="st0" d="M1431.7,219.3v-10.5h11.5v10.5H1431.7z M1431.9,264.1v-39.5h11.1v39.5H1431.9z"/>
			<path class="st0" d="M1489.4,247.7h-28.5c0.8,6.6,4.2,9.8,8.8,9.8c4.3,0,6.4-1.8,7.8-5h11.2c-2.6,8.4-9.6,12.6-19.1,12.6
				c-12.3,0-20.1-8.5-20.1-20.7c0-12.2,8.1-20.6,20.1-20.6c12,0,20,8.4,20,20.8C1489.6,245.5,1489.5,246.6,1489.4,247.7
				L1489.4,247.7z M1461,240.3h17.3c-0.6-5.6-3.9-9-8.6-9C1465,231.3,1461.9,234.1,1461,240.3L1461,240.3z"/>
			<path class="st0" d="M1493.6,252.2h11.2c0.8,4,4.1,5.2,7.6,5.2c4.9,0,7.5-1.6,7.5-4.1c0-2.4-1.6-3.6-7-4.8l-7-1.5
				c-7.5-1.6-11.6-5.1-11.6-11c0-7.5,7.7-12.2,17.2-12.2c9,0,16.5,3.7,18.2,11.4h-11.2c-0.9-2.5-3.7-3.8-6.9-3.8
				c-3.6,0-6.6,1.3-6.6,3.8c0,2.3,2.3,3.1,6.3,4l7,1.5c8.3,1.8,12.2,5.4,12.2,11.8c0,8.1-8,12.6-18.6,12.6
				C1502.3,265,1495,260.9,1493.6,252.2L1493.6,252.2z"/>
			<path class="st0" d="M1574.7,247.7h-28.5c0.8,6.6,4.2,9.8,8.8,9.8c4.3,0,6.4-1.8,7.8-5h11.2c-2.6,8.4-9.6,12.6-19.1,12.6
				c-12.3,0-20.1-8.5-20.1-20.7c0-12.2,8.1-20.6,20.1-20.6c12,0,20,8.4,20,20.8C1574.9,245.5,1574.8,246.6,1574.7,247.7
				L1574.7,247.7z M1546.3,240.3h17.3c-0.6-5.6-3.9-9-8.6-9S1547.2,234.1,1546.3,240.3L1546.3,240.3z"/>
			<path class="st0" d="M1581.4,264.1v-55.4h11.1v55.4H1581.4z"/>
			<path class="st0" d="M1601.3,264.1V253h12v11.1H1601.3z"/>
		</g>
		<line class="st2" x1="984.6" y1="75.4" x2="984.6" y2="312.2"/>
	</g>
</g>
</svg>
